<svg width="24" height="22" viewBox="0 0 24 22" fill="none" xmlns="http://www.w3.org/2000/svg">
<path d="M16.2352 0.410751C15.251 0.410751 14.4215 1.08575 14.1851 1.9971L6.23836 4.646H2.11762C0.949969 4.64605 0 5.59602 0 6.76368V10.9989C0 12.1666 0.949969 13.1166 2.11762 13.1166H2.14547L2.86955 19.8871C2.96906 20.8138 4.10794 21.8627 5.4548 21.524C6.56803 21.2459 7.25494 20.1279 7.00927 19.0136L6.85556 17.3496C6.87033 17.3505 6.885 17.3518 6.89995 17.3518H7.76461C8.93227 17.3518 9.88223 16.4018 9.88223 15.2342V14.3312L14.185 15.7655C14.4214 16.6769 15.2509 17.3518 16.2352 17.3518C17.4028 17.3518 18.3528 16.4018 18.3528 15.2342V2.52842C18.3528 1.36072 17.4029 0.410751 16.2352 0.410751ZM5.11158 20.1546C4.75078 20.2454 4.37911 20.0385 4.26722 19.6799L3.56531 13.1166H5.04694C5.64712 19.6157 5.60672 19.2204 5.62598 19.2978C5.72034 19.6759 5.49009 20.0601 5.11158 20.1546ZM5.64703 11.7048C5.02102 11.7048 2.56758 11.7048 2.11762 11.7048C1.72842 11.7048 1.41173 11.3882 1.41173 10.9989V6.76368C1.41173 6.37447 1.72837 6.05778 2.11762 6.05778H5.64703V11.7048ZM8.47055 15.2342C8.47055 15.6234 8.15391 15.9401 7.76466 15.9401H6.9C6.84037 15.9401 6.78277 15.9483 6.7275 15.9622L6.47189 13.1945L8.47055 13.8606V15.2342ZM14.1176 14.2549L7.05881 11.9019V5.86068L14.1176 3.50774V14.2549ZM16.9411 15.2342C16.9411 15.6234 16.6245 15.9401 16.2352 15.9401C15.846 15.9401 15.5293 15.6235 15.5293 15.2342V2.52842C15.5293 2.13922 15.846 1.82253 16.2352 1.82253C16.6244 1.82253 16.9411 2.13917 16.9411 2.52842V15.2342Z" fill="#798291"/>
<path d="M23.2939 7.4696H20.4704C20.0806 7.4696 19.7645 7.78563 19.7645 8.17548C19.7645 8.56529 20.0806 8.88137 20.4704 8.88137H23.2939C23.6837 8.88137 23.9998 8.56534 23.9998 8.17548C23.9998 7.78563 23.6838 7.4696 23.2939 7.4696Z" fill="#798291"/>
<path d="M23.9253 3.62454C23.751 3.27584 23.3269 3.13451 22.9783 3.30888L20.1548 4.72062C19.8061 4.895 19.6647 5.31898 19.8391 5.66769C20.0136 6.01658 20.4376 6.15767 20.7862 5.98334L23.6097 4.5716C23.9584 4.39723 24.0997 3.97324 23.9253 3.62454Z" fill="#798291"/>
<path d="M23.6096 11.7794L20.7861 10.3676C20.4375 10.1933 20.0134 10.3346 19.8391 10.6833C19.6647 11.032 19.8061 11.4559 20.1547 11.6304L22.9782 13.0421C23.327 13.2165 23.751 13.075 23.9253 12.7264C24.0996 12.3777 23.9583 11.9537 23.6096 11.7794Z" fill="#798291"/>
<path d="M14.1851 1.9971L14.2009 2.04453L14.2267 2.03594L14.2335 2.00965L14.1851 1.9971ZM6.23836 4.646V4.696H6.24647L6.25417 4.69344L6.23836 4.646ZM2.11762 4.646V4.596H2.11762L2.11762 4.646ZM2.14547 13.1166L2.19519 13.1112L2.19041 13.0666H2.14547V13.1166ZM2.86955 19.8871L2.81983 19.8924L2.81983 19.8924L2.86955 19.8871ZM5.4548 21.524L5.44268 21.4755L5.4426 21.4755L5.4548 21.524ZM7.00927 19.0136L6.95909 19.0182L6.96044 19.0243L7.00927 19.0136ZM6.85556 17.3496L6.85873 17.2997L6.8004 17.296L6.80577 17.3542L6.85556 17.3496ZM9.88223 14.3312L9.89805 14.2837L9.83223 14.2618V14.3312H9.88223ZM14.185 15.7655L14.2334 15.7529L14.2266 15.7266L14.2008 15.718L14.185 15.7655ZM18.3528 2.52842L18.3028 2.52842V2.52842H18.3528ZM5.11158 20.1546L5.09946 20.1061L5.09939 20.1062L5.11158 20.1546ZM4.26722 19.6799L4.21653 19.6853L4.21949 19.6948L4.26722 19.6799ZM3.56531 13.1166V13.0666H3.50968L3.5156 13.1219L3.56531 13.1166ZM5.04694 13.1166L5.09673 13.112L5.09253 13.0666H5.04694V13.1166ZM5.62598 19.2978L5.57746 19.3099L5.57747 19.3099L5.62598 19.2978ZM5.64703 11.7048V11.7548H5.69703V11.7048H5.64703ZM5.64703 6.05778H5.69703V6.00778H5.64703V6.05778ZM6.7275 15.9622L6.67771 15.9668L6.68308 16.025L6.73971 16.0107L6.7275 15.9622ZM6.47189 13.1945L6.4877 13.147L6.41506 13.1228L6.4221 13.1991L6.47189 13.1945ZM8.47055 13.8606H8.52055V13.8246L8.48636 13.8132L8.47055 13.8606ZM14.1176 14.2549L14.1018 14.3023L14.1676 14.3242V14.2549H14.1176ZM7.05881 11.9019H7.00881V11.938L7.043 11.9494L7.05881 11.9019ZM7.05881 5.86068L7.043 5.81324L7.00881 5.82464V5.86068H7.05881ZM14.1176 3.50774H14.1676V3.43837L14.1018 3.4603L14.1176 3.50774ZM22.9783 3.30888L23.0006 3.3536L23.0006 3.3536L22.9783 3.30888ZM20.1548 4.72062L20.1324 4.6759L20.1324 4.6759L20.1548 4.72062ZM19.8391 5.66769L19.8838 5.64532L19.8391 5.66769ZM20.7862 5.98334L20.7638 5.93862L20.7638 5.93862L20.7862 5.98334ZM23.6097 4.5716L23.632 4.61633L23.6321 4.61632L23.6097 4.5716ZM23.6096 11.7794L23.632 11.7346L23.632 11.7346L23.6096 11.7794ZM20.7861 10.3676L20.7638 10.4124L20.7638 10.4124L20.7861 10.3676ZM19.8391 10.6833L19.7943 10.6609L19.7943 10.6609L19.8391 10.6833ZM20.1547 11.6304L20.1323 11.6751L20.1324 11.6751L20.1547 11.6304ZM22.9782 13.0421L23.0006 12.9974L23.0006 12.9974L22.9782 13.0421ZM23.9253 12.7264L23.97 12.7488L23.97 12.7488L23.9253 12.7264ZM16.2352 0.360751C15.2276 0.360751 14.3786 1.05174 14.1367 1.98454L14.2335 2.00965C14.4643 1.11976 15.2744 0.460751 16.2352 0.460751V0.360751ZM14.1693 1.94966L6.22255 4.59857L6.25417 4.69344L14.2009 2.04453L14.1693 1.94966ZM6.23836 4.596H2.11762V4.696H6.23836V4.596ZM2.11762 4.596C0.922355 4.59605 -0.05 5.5684 -0.05 6.76368H0.05C0.05 5.62363 0.977583 4.69605 2.11763 4.696L2.11762 4.596ZM-0.05 6.76368V10.9989H0.05V6.76368H-0.05ZM-0.05 10.9989C-0.05 12.1942 0.922355 13.1666 2.11762 13.1666V13.0666C0.977583 13.0666 0.05 12.139 0.05 10.9989H-0.05ZM2.11762 13.1666H2.14547V13.0666H2.11762V13.1666ZM2.09575 13.1219L2.81983 19.8924L2.91926 19.8818L2.19519 13.1112L2.09575 13.1219ZM2.81983 19.8924C2.8714 20.3726 3.19057 20.8784 3.66517 21.2206C4.14104 21.5638 4.77743 21.7459 5.46699 21.5725L5.4426 21.4755C4.7853 21.6408 4.17883 21.4678 3.72366 21.1395C3.26724 20.8104 2.96721 20.3283 2.91926 19.8817L2.81983 19.8924ZM5.46691 21.5725C6.60652 21.2878 7.30957 20.1435 7.05809 19.0028L6.96044 19.0243C7.2003 20.1123 6.52954 21.204 5.44268 21.4755L5.46691 21.5725ZM7.05905 19.009L6.90535 17.345L6.80577 17.3542L6.95948 19.0182L7.05905 19.009ZM6.85239 17.3995C6.86547 17.4003 6.8829 17.4018 6.89995 17.4018V17.3018C6.8871 17.3018 6.87519 17.3007 6.85873 17.2997L6.85239 17.3995ZM6.89995 17.4018H7.76461V17.3018H6.89995V17.4018ZM7.76461 17.4018C8.95988 17.4018 9.93223 16.4295 9.93223 15.2342H9.83223C9.83223 16.3742 8.90465 17.3018 7.76461 17.3018V17.4018ZM9.93223 15.2342V14.3312H9.83223V15.2342H9.93223ZM9.86642 14.3786L14.1692 15.8129L14.2008 15.718L9.89805 14.2837L9.86642 14.3786ZM14.1366 15.778C14.3785 16.7109 15.2275 17.4018 16.2352 17.4018V17.3018C15.2743 17.3018 14.4642 16.6428 14.2334 15.7529L14.1366 15.778ZM16.2352 17.4018C17.4304 17.4018 18.4028 16.4295 18.4028 15.2342H18.3028C18.3028 16.3742 17.3752 17.3018 16.2352 17.3018V17.4018ZM18.4028 15.2342V2.52842H18.3028V15.2342H18.4028ZM18.4028 2.52843C18.4028 1.33311 17.4305 0.360751 16.2352 0.360751V0.460751C17.3752 0.460751 18.3028 1.38833 18.3028 2.52842L18.4028 2.52843ZM5.09939 20.1062C4.7643 20.1904 4.41894 19.9983 4.31495 19.665L4.21949 19.6948C4.33928 20.0787 4.73726 20.3003 5.12377 20.2031L5.09939 20.1062ZM4.31694 19.6746L3.61503 13.1113L3.5156 13.1219L4.2175 19.6852L4.31694 19.6746ZM3.56531 13.1666H5.04694V13.0666H3.56531V13.1666ZM4.99715 13.1212C5.29724 16.3707 5.43719 17.8967 5.50452 18.62C5.53817 18.9814 5.55373 19.1429 5.56208 19.2187C5.5662 19.2562 5.56877 19.2747 5.57121 19.2866C5.5726 19.2934 5.57393 19.2979 5.57512 19.3018C5.57613 19.305 5.57666 19.3067 5.57746 19.3099L5.67451 19.2857C5.6729 19.2793 5.67149 19.2749 5.67068 19.2723C5.67006 19.2703 5.66969 19.269 5.66916 19.2665C5.66779 19.2598 5.66566 19.2457 5.66148 19.2078C5.65324 19.1329 5.63777 18.9725 5.60409 18.6107C5.53676 17.8875 5.39682 16.3616 5.09673 13.112L4.99715 13.1212ZM5.57747 19.3099C5.66515 19.6612 5.45116 20.0183 5.09946 20.1061L5.12369 20.2032C5.52902 20.1019 5.77554 19.6905 5.6745 19.2857L5.57747 19.3099ZM5.64703 11.6548C5.64581 11.6548 5.64458 11.6548 5.64334 11.6548C5.64211 11.6548 5.64086 11.6548 5.63961 11.6548C5.63836 11.6548 5.6371 11.6548 5.63584 11.6548C5.63458 11.6548 5.6333 11.6548 5.63203 11.6548C5.63075 11.6548 5.62946 11.6548 5.62817 11.6548C5.62688 11.6548 5.62558 11.6548 5.62428 11.6548C5.62297 11.6548 5.62166 11.6548 5.62034 11.6548C5.61902 11.6548 5.6177 11.6548 5.61636 11.6548C5.61503 11.6548 5.61369 11.6548 5.61235 11.6548C5.611 11.6548 5.60965 11.6548 5.60829 11.6548C5.60693 11.6548 5.60556 11.6548 5.60419 11.6548C5.60282 11.6548 5.60144 11.6548 5.60005 11.6548C5.59867 11.6548 5.59727 11.6548 5.59587 11.6548C5.59448 11.6548 5.59307 11.6548 5.59166 11.6548C5.59025 11.6548 5.58883 11.6548 5.5874 11.6548C5.58598 11.6548 5.58454 11.6548 5.58311 11.6548C5.58167 11.6548 5.58022 11.6548 5.57877 11.6548C5.57732 11.6548 5.57586 11.6548 5.5744 11.6548C5.57293 11.6548 5.57146 11.6548 5.56998 11.6548C5.56851 11.6548 5.56702 11.6548 5.56553 11.6548C5.56404 11.6548 5.56255 11.6548 5.56104 11.6548C5.55954 11.6548 5.55803 11.6548 5.55652 11.6548C5.555 11.6548 5.55348 11.6548 5.55195 11.6548C5.55042 11.6548 5.54889 11.6548 5.54735 11.6548C5.54581 11.6548 5.54426 11.6548 5.54271 11.6548C5.54115 11.6548 5.53959 11.6548 5.53803 11.6548C5.53646 11.6548 5.53489 11.6548 5.53331 11.6548C5.53173 11.6548 5.53015 11.6548 5.52856 11.6548C5.52697 11.6548 5.52537 11.6548 5.52377 11.6548C5.52216 11.6548 5.52055 11.6548 5.51894 11.6548C5.51732 11.6548 5.5157 11.6548 5.51407 11.6548C5.51245 11.6548 5.51081 11.6548 5.50917 11.6548C5.50753 11.6548 5.50589 11.6548 5.50424 11.6548C5.50258 11.6548 5.50093 11.6548 5.49926 11.6548C5.4976 11.6548 5.49593 11.6548 5.49425 11.6548C5.49258 11.6548 5.4909 11.6548 5.48921 11.6548C5.48752 11.6548 5.48583 11.6548 5.48413 11.6548C5.48243 11.6548 5.48072 11.6548 5.47901 11.6548C5.4773 11.6548 5.47558 11.6548 5.47386 11.6548C5.47214 11.6548 5.47041 11.6548 5.46867 11.6548C5.46694 11.6548 5.4652 11.6548 5.46345 11.6548C5.46171 11.6548 5.45995 11.6548 5.4582 11.6548C5.45644 11.6548 5.45468 11.6548 5.45291 11.6548C5.45114 11.6548 5.44936 11.6548 5.44758 11.6548C5.4458 11.6548 5.44401 11.6548 5.44222 11.6548C5.44043 11.6548 5.43863 11.6548 5.43683 11.6548C5.43502 11.6548 5.43321 11.6548 5.4314 11.6548C5.42958 11.6548 5.42776 11.6548 5.42594 11.6548C5.42411 11.6548 5.42228 11.6548 5.42044 11.6548C5.4186 11.6548 5.41676 11.6548 5.41491 11.6548C5.41306 11.6548 5.41121 11.6548 5.40935 11.6548C5.40749 11.6548 5.40563 11.6548 5.40376 11.6548C5.40189 11.6548 5.40001 11.6548 5.39813 11.6548C5.39625 11.6548 5.39436 11.6548 5.39247 11.6548C5.39058 11.6548 5.38868 11.6548 5.38677 11.6548C5.38487 11.6548 5.38296 11.6548 5.38105 11.6548C5.37913 11.6548 5.37722 11.6548 5.37529 11.6548C5.37337 11.6548 5.37144 11.6548 5.3695 11.6548C5.36757 11.6548 5.36562 11.6548 5.36368 11.6548C5.36173 11.6548 5.35978 11.6548 5.35783 11.6548C5.35587 11.6548 5.35391 11.6548 5.35194 11.6548C5.34997 11.6548 5.348 11.6548 5.34602 11.6548C5.34405 11.6548 5.34206 11.6548 5.34008 11.6548C5.33809 11.6548 5.3361 11.6548 5.3341 11.6548C5.3321 11.6548 5.3301 11.6548 5.32809 11.6548C5.32608 11.6548 5.32407 11.6548 5.32205 11.6548C5.32003 11.6548 5.31801 11.6548 5.31598 11.6548C5.31395 11.6548 5.31191 11.6548 5.30988 11.6548C5.30784 11.6548 5.30579 11.6548 5.30374 11.6548C5.3017 11.6548 5.29964 11.6548 5.29758 11.6548C5.29552 11.6548 5.29346 11.6548 5.29139 11.6548C5.28932 11.6548 5.28725 11.6548 5.28517 11.6548C5.28309 11.6548 5.28101 11.6548 5.27892 11.6548C5.27683 11.6548 5.27474 11.6548 5.27264 11.6548C5.27054 11.6548 5.26844 11.6548 5.26633 11.6548C5.26422 11.6548 5.26211 11.6548 5.25999 11.6548C5.25788 11.6548 5.25575 11.6548 5.25363 11.6548C5.2515 11.6548 5.24937 11.6548 5.24723 11.6548C5.2451 11.6548 5.24295 11.6548 5.24081 11.6548C5.23866 11.6548 5.23651 11.6548 5.23436 11.6548C5.2322 11.6548 5.23004 11.6548 5.22788 11.6548C5.22571 11.6548 5.22354 11.6548 5.22137 11.6548C5.21919 11.6548 5.21701 11.6548 5.21483 11.6548C5.21265 11.6548 5.21046 11.6548 5.20827 11.6548C5.20608 11.6548 5.20388 11.6548 5.20168 11.6548C5.19948 11.6548 5.19727 11.6548 5.19506 11.6548C5.19285 11.6548 5.19063 11.6548 5.18841 11.6548C5.18619 11.6548 5.18397 11.6548 5.18174 11.6548C5.17951 11.6548 5.17728 11.6548 5.17504 11.6548C5.1728 11.6548 5.17056 11.6548 5.16832 11.6548C5.16607 11.6548 5.16382 11.6548 5.16156 11.6548C5.15931 11.6548 5.15705 11.6548 5.15479 11.6548C5.15252 11.6548 5.15025 11.6548 5.14798 11.6548C5.14571 11.6548 5.14343 11.6548 5.14115 11.6548C5.13887 11.6548 5.13659 11.6548 5.1343 11.6548C5.13201 11.6548 5.12971 11.6548 5.12741 11.6548C5.12512 11.6548 5.12281 11.6548 5.12051 11.6548C5.1182 11.6548 5.11589 11.6548 5.11357 11.6548C5.11126 11.6548 5.10894 11.6548 5.10662 11.6548C5.10429 11.6548 5.10197 11.6548 5.09964 11.6548C5.0973 11.6548 5.09497 11.6548 5.09263 11.6548C5.09029 11.6548 5.08795 11.6548 5.0856 11.6548C5.08325 11.6548 5.0809 11.6548 5.07854 11.6548C5.07619 11.6548 5.07383 11.6548 5.07146 11.6548C5.0691 11.6548 5.06673 11.6548 5.06436 11.6548C5.06199 11.6548 5.05961 11.6548 5.05723 11.6548C5.05485 11.6548 5.05247 11.6548 5.05008 11.6548C5.04769 11.6548 5.0453 11.6548 5.0429 11.6548C5.04051 11.6548 5.03811 11.6548 5.03571 11.6548C5.0333 11.6548 5.0309 11.6548 5.02849 11.6548C5.02607 11.6548 5.02366 11.6548 5.02124 11.6548C5.01882 11.6548 5.0164 11.6548 5.01397 11.6548C5.01155 11.6548 5.00912 11.6548 5.00668 11.6548C5.00425 11.6548 5.00181 11.6548 4.99937 11.6548C4.99693 11.6548 4.99449 11.6548 4.99204 11.6548C4.98959 11.6548 4.98714 11.6548 4.98468 11.6548C4.98222 11.6548 4.97976 11.6548 4.9773 11.6548C4.97484 11.6548 4.97237 11.6548 4.9699 11.6548C4.96743 11.6548 4.96496 11.6548 4.96248 11.6548C4.96 11.6548 4.95752 11.6548 4.95504 11.6548C4.95255 11.6548 4.95006 11.6548 4.94757 11.6548C4.94508 11.6548 4.94258 11.6548 4.94008 11.6548C4.93759 11.6548 4.93508 11.6548 4.93258 11.6548C4.93007 11.6548 4.92756 11.6548 4.92505 11.6548C4.92254 11.6548 4.92002 11.6548 4.9175 11.6548C4.91498 11.6548 4.91246 11.6548 4.90993 11.6548C4.90741 11.6548 4.90488 11.6548 4.90234 11.6548C4.89981 11.6548 4.89728 11.6548 4.89474 11.6548C4.8922 11.6548 4.88965 11.6548 4.88711 11.6548C4.88456 11.6548 4.88201 11.6548 4.87946 11.6548C4.87691 11.6548 4.87435 11.6548 4.87179 11.6548C4.86923 11.6548 4.86667 11.6548 4.8641 11.6548C4.86154 11.6548 4.85897 11.6548 4.8564 11.6548C4.85382 11.6548 4.85125 11.6548 4.84867 11.6548C4.84609 11.6548 4.84351 11.6548 4.84093 11.6548C4.83834 11.6548 4.83575 11.6548 4.83316 11.6548C4.83057 11.6548 4.82798 11.6548 4.82538 11.6548C4.82278 11.6548 4.82018 11.6548 4.81758 11.6548C4.81498 11.6548 4.81237 11.6548 4.80976 11.6548C4.80715 11.6548 4.80454 11.6548 4.80193 11.6548C4.79931 11.6548 4.79669 11.6548 4.79407 11.6548C4.79145 11.6548 4.78883 11.6548 4.7862 11.6548C4.78357 11.6548 4.78094 11.6548 4.77831 11.6548C4.77568 11.6548 4.77304 11.6548 4.7704 11.6548C4.76776 11.6548 4.76512 11.6548 4.76248 11.6548C4.75983 11.6548 4.75719 11.6548 4.75454 11.6548C4.75189 11.6548 4.74923 11.6548 4.74658 11.6548C4.74392 11.6548 4.74127 11.6548 4.7386 11.6548C4.73594 11.6548 4.73328 11.6548 4.73061 11.6548C4.72795 11.6548 4.72528 11.6548 4.72261 11.6548C4.71993 11.6548 4.71726 11.6548 4.71458 11.6548C4.71191 11.6548 4.70923 11.6548 4.70654 11.6548C4.70386 11.6548 4.70118 11.6548 4.69849 11.6548C4.6958 11.6548 4.69311 11.6548 4.69042 11.6548C4.68772 11.6548 4.68503 11.6548 4.68233 11.6548C4.67963 11.6548 4.67693 11.6548 4.67423 11.6548C4.67153 11.6548 4.66882 11.6548 4.66611 11.6548C4.6634 11.6548 4.66069 11.6548 4.65798 11.6548C4.65527 11.6548 4.65255 11.6548 4.64984 11.6548C4.64712 11.6548 4.6444 11.6548 4.64167 11.6548C4.63895 11.6548 4.63623 11.6548 4.6335 11.6548C4.63077 11.6548 4.62804 11.6548 4.62531 11.6548C4.62258 11.6548 4.61984 11.6548 4.61711 11.6548C4.61437 11.6548 4.61163 11.6548 4.60889 11.6548C4.60615 11.6548 4.6034 11.6548 4.60066 11.6548C4.59791 11.6548 4.59516 11.6548 4.59241 11.6548C4.58966 11.6548 4.58691 11.6548 4.58415 11.6548C4.5814 11.6548 4.57864 11.6548 4.57588 11.6548C4.57312 11.6548 4.57036 11.6548 4.5676 11.6548C4.56483 11.6548 4.56207 11.6548 4.5593 11.6548C4.55653 11.6548 4.55376 11.6548 4.55099 11.6548C4.54822 11.6548 4.54544 11.6548 4.54267 11.6548C4.53989 11.6548 4.53711 11.6548 4.53433 11.6548C4.53155 11.6548 4.52877 11.6548 4.52598 11.6548C4.5232 11.6548 4.52041 11.6548 4.51762 11.6548C4.51484 11.6548 4.51205 11.6548 4.50925 11.6548C4.50646 11.6548 4.50367 11.6548 4.50087 11.6548C4.49807 11.6548 4.49528 11.6548 4.49248 11.6548C4.48968 11.6548 4.48687 11.6548 4.48407 11.6548C4.48127 11.6548 4.47846 11.6548 4.47565 11.6548C4.47285 11.6548 4.47004 11.6548 4.46723 11.6548C4.46441 11.6548 4.4616 11.6548 4.45879 11.6548C4.45597 11.6548 4.45316 11.6548 4.45034 11.6548C4.44752 11.6548 4.4447 11.6548 4.44188 11.6548C4.43906 11.6548 4.43623 11.6548 4.43341 11.6548C4.43058 11.6548 4.42775 11.6548 4.42493 11.6548C4.4221 11.6548 4.41927 11.6548 4.41644 11.6548C4.4136 11.6548 4.41077 11.6548 4.40794 11.6548C4.4051 11.6548 4.40226 11.6548 4.39943 11.6548C4.39659 11.6548 4.39375 11.6548 4.39091 11.6548C4.38807 11.6548 4.38522 11.6548 4.38238 11.6548C4.37953 11.6548 4.37669 11.6548 4.37384 11.6548C4.37099 11.6548 4.36814 11.6548 4.36529 11.6548C4.36244 11.6548 4.35959 11.6548 4.35674 11.6548C4.35389 11.6548 4.35103 11.6548 4.34817 11.6548C4.34532 11.6548 4.34246 11.6548 4.3396 11.6548C4.33674 11.6548 4.33388 11.6548 4.33102 11.6548C4.32816 11.6548 4.3253 11.6548 4.32243 11.6548C4.31957 11.6548 4.3167 11.6548 4.31384 11.6548C4.31097 11.6548 4.3081 11.6548 4.30523 11.6548C4.30236 11.6548 4.29949 11.6548 4.29662 11.6548C4.29375 11.6548 4.29087 11.6548 4.288 11.6548C4.28513 11.6548 4.28225 11.6548 4.27937 11.6548C4.2765 11.6548 4.27362 11.6548 4.27074 11.6548C4.26786 11.6548 4.26498 11.6548 4.2621 11.6548C4.25922 11.6548 4.25634 11.6548 4.25345 11.6548C4.25057 11.6548 4.24768 11.6548 4.2448 11.6548C4.24191 11.6548 4.23903 11.6548 4.23614 11.6548C4.23325 11.6548 4.23036 11.6548 4.22747 11.6548C4.22458 11.6548 4.22169 11.6548 4.2188 11.6548C4.21591 11.6548 4.21301 11.6548 4.21012 11.6548C4.20723 11.6548 4.20433 11.6548 4.20144 11.6548C4.19854 11.6548 4.19564 11.6548 4.19275 11.6548C4.18985 11.6548 4.18695 11.6548 4.18405 11.6548C4.18115 11.6548 4.17825 11.6548 4.17535 11.6548C4.17245 11.6548 4.16955 11.6548 4.16665 11.6548C4.16374 11.6548 4.16084 11.6548 4.15794 11.6548C4.15503 11.6548 4.15213 11.6548 4.14922 11.6548C4.14632 11.6548 4.14341 11.6548 4.1405 11.6548C4.1376 11.6548 4.13469 11.6548 4.13178 11.6548C4.12887 11.6548 4.12596 11.6548 4.12305 11.6548C4.12014 11.6548 4.11723 11.6548 4.11432 11.6548C4.11141 11.6548 4.1085 11.6548 4.10559 11.6548C4.10267 11.6548 4.09976 11.6548 4.09685 11.6548C4.09393 11.6548 4.09102 11.6548 4.0881 11.6548C4.08519 11.6548 4.08227 11.6548 4.07936 11.6548C4.07644 11.6548 4.07353 11.6548 4.07061 11.6548C4.06769 11.6548 4.06478 11.6548 4.06186 11.6548C4.05894 11.6548 4.05602 11.6548 4.0531 11.6548C4.05018 11.6548 4.04727 11.6548 4.04435 11.6548C4.04143 11.6548 4.03851 11.6548 4.03559 11.6548C4.03267 11.6548 4.02975 11.6548 4.02682 11.6548C4.0239 11.6548 4.02098 11.6548 4.01806 11.6548C4.01514 11.6548 4.01222 11.6548 4.00929 11.6548C4.00637 11.6548 4.00345 11.6548 4.00053 11.6548C3.9976 11.6548 3.99468 11.6548 3.99176 11.6548C3.98883 11.6548 3.98591 11.6548 3.98299 11.6548C3.98006 11.6548 3.97714 11.6548 3.97422 11.6548C3.97129 11.6548 3.96837 11.6548 3.96544 11.6548C3.96252 11.6548 3.95959 11.6548 3.95667 11.6548C3.95374 11.6548 3.95082 11.6548 3.94789 11.6548C3.94497 11.6548 3.94204 11.6548 3.93912 11.6548C3.93619 11.6548 3.93327 11.6548 3.93034 11.6548C3.92742 11.6548 3.92449 11.6548 3.92157 11.6548C3.91864 11.6548 3.91572 11.6548 3.91279 11.6548C3.90987 11.6548 3.90694 11.6548 3.90402 11.6548C3.90109 11.6548 3.89817 11.6548 3.89524 11.6548C3.89232 11.6548 3.88939 11.6548 3.88647 11.6548C3.88354 11.6548 3.88062 11.6548 3.87769 11.6548C3.87477 11.6548 3.87184 11.6548 3.86892 11.6548C3.86599 11.6548 3.86307 11.6548 3.86015 11.6548C3.85722 11.6548 3.8543 11.6548 3.85137 11.6548C3.84845 11.6548 3.84553 11.6548 3.8426 11.6548C3.83968 11.6548 3.83676 11.6548 3.83384 11.6548C3.83091 11.6548 3.82799 11.6548 3.82507 11.6548C3.82215 11.6548 3.81923 11.6548 3.8163 11.6548C3.81338 11.6548 3.81046 11.6548 3.80754 11.6548C3.80462 11.6548 3.8017 11.6548 3.79878 11.6548C3.79586 11.6548 3.79294 11.6548 3.79002 11.6548C3.7871 11.6548 3.78419 11.6548 3.78127 11.6548C3.77835 11.6548 3.77543 11.6548 3.77251 11.6548C3.7696 11.6548 3.76668 11.6548 3.76376 11.6548C3.76085 11.6548 3.75793 11.6548 3.75502 11.6548C3.7521 11.6548 3.74919 11.6548 3.74627 11.6548C3.74336 11.6548 3.74044 11.6548 3.73753 11.6548C3.73462 11.6548 3.73171 11.6548 3.72879 11.6548C3.72588 11.6548 3.72297 11.6548 3.72006 11.6548C3.71715 11.6548 3.71424 11.6548 3.71133 11.6548C3.70842 11.6548 3.70551 11.6548 3.70261 11.6548C3.6997 11.6548 3.69679 11.6548 3.69389 11.6548C3.69098 11.6548 3.68807 11.6548 3.68517 11.6548C3.68226 11.6548 3.67936 11.6548 3.67646 11.6548C3.67355 11.6548 3.67065 11.6548 3.66775 11.6548C3.66485 11.6548 3.66195 11.6548 3.65905 11.6548C3.65615 11.6548 3.65325 11.6548 3.65035 11.6548C3.64745 11.6548 3.64455 11.6548 3.64166 11.6548C3.63876 11.6548 3.63587 11.6548 3.63297 11.6548C3.63008 11.6548 3.62718 11.6548 3.62429 11.6548C3.6214 11.6548 3.61851 11.6548 3.61561 11.6548C3.61272 11.6548 3.60983 11.6548 3.60695 11.6548C3.60406 11.6548 3.60117 11.6548 3.59828 11.6548C3.5954 11.6548 3.59251 11.6548 3.58963 11.6548C3.58674 11.6548 3.58386 11.6548 3.58097 11.6548C3.57809 11.6548 3.57521 11.6548 3.57233 11.6548C3.56945 11.6548 3.56657 11.6548 3.56369 11.6548C3.56082 11.6548 3.55794 11.6548 3.55506 11.6548C3.55219 11.6548 3.54931 11.6548 3.54644 11.6548C3.54357 11.6548 3.5407 11.6548 3.53783 11.6548C3.53496 11.6548 3.53209 11.6548 3.52922 11.6548C3.52635 11.6548 3.52348 11.6548 3.52062 11.6548C3.51775 11.6548 3.51489 11.6548 3.51202 11.6548C3.50916 11.6548 3.5063 11.6548 3.50344 11.6548C3.50058 11.6548 3.49772 11.6548 3.49486 11.6548C3.49201 11.6548 3.48915 11.6548 3.4863 11.6548C3.48344 11.6548 3.48059 11.6548 3.47774 11.6548C3.47489 11.6548 3.47203 11.6548 3.46919 11.6548C3.46634 11.6548 3.46349 11.6548 3.46064 11.6548C3.4578 11.6548 3.45495 11.6548 3.45211 11.6548C3.44927 11.6548 3.44643 11.6548 3.44359 11.6548C3.44075 11.6548 3.43791 11.6548 3.43507 11.6548C3.43224 11.6548 3.4294 11.6548 3.42657 11.6548C3.42374 11.6548 3.4209 11.6548 3.41807 11.6548C3.41524 11.6548 3.41242 11.6548 3.40959 11.6548C3.40676 11.6548 3.40394 11.6548 3.40111 11.6548C3.39829 11.6548 3.39547 11.6548 3.39265 11.6548C3.38983 11.6548 3.38701 11.6548 3.38419 11.6548C3.38138 11.6548 3.37856 11.6548 3.37575 11.6548C3.37294 11.6548 3.37013 11.6548 3.36732 11.6548C3.36451 11.6548 3.3617 11.6548 3.3589 11.6548C3.35609 11.6548 3.35329 11.6548 3.35048 11.6548C3.34768 11.6548 3.34488 11.6548 3.34208 11.6548C3.33929 11.6548 3.33649 11.6548 3.3337 11.6548C3.3309 11.6548 3.32811 11.6548 3.32532 11.6548C3.32253 11.6548 3.31974 11.6548 3.31695 11.6548C3.31417 11.6548 3.31138 11.6548 3.3086 11.6548C3.30582 11.6548 3.30304 11.6548 3.30026 11.6548C3.29748 11.6548 3.29471 11.6548 3.29193 11.6548C3.28916 11.6548 3.28639 11.6548 3.28362 11.6548C3.28085 11.6548 3.27808 11.6548 3.27531 11.6548C3.27255 11.6548 3.26978 11.6548 3.26702 11.6548C3.26426 11.6548 3.2615 11.6548 3.25874 11.6548C3.25599 11.6548 3.25323 11.6548 3.25048 11.6548C3.24773 11.6548 3.24498 11.6548 3.24223 11.6548C3.23948 11.6548 3.23673 11.6548 3.23399 11.6548C3.23125 11.6548 3.22851 11.6548 3.22577 11.6548C3.22303 11.6548 3.22029 11.6548 3.21756 11.6548C3.21482 11.6548 3.21209 11.6548 3.20936 11.6548C3.20663 11.6548 3.2039 11.6548 3.20118 11.6548C3.19845 11.6548 3.19573 11.6548 3.19301 11.6548C3.19029 11.6548 3.18757 11.6548 3.18486 11.6548C3.18214 11.6548 3.17943 11.6548 3.17672 11.6548C3.17401 11.6548 3.1713 11.6548 3.16859 11.6548C3.16589 11.6548 3.16319 11.6548 3.16049 11.6548C3.15779 11.6548 3.15509 11.6548 3.15239 11.6548C3.1497 11.6548 3.147 11.6548 3.14431 11.6548C3.14162 11.6548 3.13894 11.6548 3.13625 11.6548C3.13357 11.6548 3.13088 11.6548 3.1282 11.6548C3.12552 11.6548 3.12285 11.6548 3.12017 11.6548C3.1175 11.6548 3.11483 11.6548 3.11216 11.6548C3.10949 11.6548 3.10682 11.6548 3.10416 11.6548C3.1015 11.6548 3.09884 11.6548 3.09618 11.6548C3.09352 11.6548 3.09086 11.6548 3.08821 11.6548C3.08556 11.6548 3.08291 11.6548 3.08026 11.6548C3.07762 11.6548 3.07497 11.6548 3.07233 11.6548C3.06969 11.6548 3.06705 11.6548 3.06442 11.6548C3.06178 11.6548 3.05915 11.6548 3.05652 11.6548C3.05389 11.6548 3.05126 11.6548 3.04864 11.6548C3.04601 11.6548 3.04339 11.6548 3.04078 11.6548C3.03816 11.6548 3.03554 11.6548 3.03293 11.6548C3.03032 11.6548 3.02771 11.6548 3.0251 11.6548C3.0225 11.6548 3.01989 11.6548 3.01729 11.6548C3.0147 11.6548 3.0121 11.6548 3.0095 11.6548C3.00691 11.6548 3.00432 11.6548 3.00173 11.6548C2.99914 11.6548 2.99656 11.6548 2.99398 11.6548C2.9914 11.6548 2.98882 11.6548 2.98624 11.6548C2.98367 11.6548 2.9811 11.6548 2.97853 11.6548C2.97596 11.6548 2.97339 11.6548 2.97083 11.6548C2.96827 11.6548 2.96571 11.6548 2.96315 11.6548C2.9606 11.6548 2.95805 11.6548 2.9555 11.6548C2.95295 11.6548 2.9504 11.6548 2.94786 11.6548C2.94532 11.6548 2.94278 11.6548 2.94024 11.6548C2.9377 11.6548 2.93517 11.6548 2.93264 11.6548C2.93011 11.6548 2.92759 11.6548 2.92506 11.6548C2.92254 11.6548 2.92002 11.6548 2.91751 11.6548C2.91499 11.6548 2.91248 11.6548 2.90997 11.6548C2.90746 11.6548 2.90495 11.6548 2.90245 11.6548C2.89995 11.6548 2.89745 11.6548 2.89496 11.6548C2.89246 11.6548 2.88997 11.6548 2.88748 11.6548C2.88499 11.6548 2.88251 11.6548 2.88003 11.6548C2.87755 11.6548 2.87507 11.6548 2.8726 11.6548C2.87012 11.6548 2.86765 11.6548 2.86519 11.6548C2.86272 11.6548 2.86026 11.6548 2.8578 11.6548C2.85534 11.6548 2.85288 11.6548 2.85043 11.6548C2.84798 11.6548 2.84553 11.6548 2.84308 11.6548C2.84064 11.6548 2.8382 11.6548 2.83576 11.6548C2.83332 11.6548 2.83089 11.6548 2.82846 11.6548C2.82603 11.6548 2.82361 11.6548 2.82118 11.6548C2.81876 11.6548 2.81634 11.6548 2.81393 11.6548C2.81151 11.6548 2.8091 11.6548 2.8067 11.6548C2.80429 11.6548 2.80189 11.6548 2.79949 11.6548C2.79709 11.6548 2.79469 11.6548 2.7923 11.6548C2.78991 11.6548 2.78752 11.6548 2.78514 11.6548C2.78276 11.6548 2.78038 11.6548 2.778 11.6548C2.77562 11.6548 2.77325 11.6548 2.77089 11.6548C2.76852 11.6548 2.76615 11.6548 2.76379 11.6548C2.76143 11.6548 2.75908 11.6548 2.75673 11.6548C2.75438 11.6548 2.75203 11.6548 2.74968 11.6548C2.74734 11.6548 2.745 11.6548 2.74267 11.6548C2.74033 11.6548 2.738 11.6548 2.73567 11.6548C2.73335 11.6548 2.73102 11.6548 2.7287 11.6548C2.72638 11.6548 2.72407 11.6548 2.72176 11.6548C2.71945 11.6548 2.71714 11.6548 2.71484 11.6548C2.71254 11.6548 2.71024 11.6548 2.70795 11.6548C2.70565 11.6548 2.70336 11.6548 2.70108 11.6548C2.69879 11.6548 2.69651 11.6548 2.69424 11.6548C2.69196 11.6548 2.68969 11.6548 2.68742 11.6548C2.68515 11.6548 2.68289 11.6548 2.68063 11.6548C2.67837 11.6548 2.67612 11.6548 2.67387 11.6548C2.67162 11.6548 2.66937 11.6548 2.66713 11.6548C2.66489 11.6548 2.66265 11.6548 2.66042 11.6548C2.65818 11.6548 2.65596 11.6548 2.65373 11.6548C2.65151 11.6548 2.64929 11.6548 2.64707 11.6548C2.64486 11.6548 2.64265 11.6548 2.64044 11.6548C2.63824 11.6548 2.63604 11.6548 2.63384 11.6548C2.63164 11.6548 2.62945 11.6548 2.62726 11.6548C2.62507 11.6548 2.62289 11.6548 2.62071 11.6548C2.61853 11.6548 2.61636 11.6548 2.61419 11.6548C2.61202 11.6548 2.60986 11.6548 2.6077 11.6548C2.60554 11.6548 2.60338 11.6548 2.60123 11.6548C2.59908 11.6548 2.59694 11.6548 2.5948 11.6548C2.59266 11.6548 2.59052 11.6548 2.58839 11.6548C2.58626 11.6548 2.58413 11.6548 2.58201 11.6548C2.57989 11.6548 2.57777 11.6548 2.57566 11.6548C2.57354 11.6548 2.57144 11.6548 2.56933 11.6548C2.56723 11.6548 2.56513 11.6548 2.56304 11.6548C2.56095 11.6548 2.55886 11.6548 2.55678 11.6548C2.55469 11.6548 2.55261 11.6548 2.55054 11.6548C2.54847 11.6548 2.5464 11.6548 2.54434 11.6548C2.54227 11.6548 2.54021 11.6548 2.53816 11.6548C2.53611 11.6548 2.53406 11.6548 2.53202 11.6548C2.52997 11.6548 2.52793 11.6548 2.5259 11.6548C2.52387 11.6548 2.52184 11.6548 2.51981 11.6548C2.51779 11.6548 2.51577 11.6548 2.51376 11.6548C2.51175 11.6548 2.50974 11.6548 2.50774 11.6548C2.50573 11.6548 2.50374 11.6548 2.50174 11.6548C2.49975 11.6548 2.49776 11.6548 2.49578 11.6548C2.4938 11.6548 2.49182 11.6548 2.48985 11.6548C2.48788 11.6548 2.48591 11.6548 2.48395 11.6548C2.48199 11.6548 2.48003 11.6548 2.47808 11.6548C2.47613 11.6548 2.47418 11.6548 2.47224 11.6548C2.4703 11.6548 2.46837 11.6548 2.46644 11.6548C2.46451 11.6548 2.46259 11.6548 2.46067 11.6548C2.45875 11.6548 2.45683 11.6548 2.45493 11.6548C2.45302 11.6548 2.45111 11.6548 2.44922 11.6548C2.44732 11.6548 2.44543 11.6548 2.44354 11.6548C2.44165 11.6548 2.43977 11.6548 2.4379 11.6548C2.43602 11.6548 2.43415 11.6548 2.43229 11.6548C2.43042 11.6548 2.42856 11.6548 2.42671 11.6548C2.42486 11.6548 2.42301 11.6548 2.42117 11.6548C2.41932 11.6548 2.41749 11.6548 2.41565 11.6548C2.41382 11.6548 2.412 11.6548 2.41018 11.6548C2.40836 11.6548 2.40654 11.6548 2.40473 11.6548C2.40292 11.6548 2.40112 11.6548 2.39932 11.6548C2.39753 11.6548 2.39573 11.6548 2.39395 11.6548C2.39216 11.6548 2.39038 11.6548 2.38861 11.6548C2.38683 11.6548 2.38506 11.6548 2.3833 11.6548C2.38154 11.6548 2.37978 11.6548 2.37803 11.6548C2.37627 11.6548 2.37453 11.6548 2.37279 11.6548C2.37105 11.6548 2.36931 11.6548 2.36759 11.6548C2.36586 11.6548 2.36413 11.6548 2.36242 11.6548C2.3607 11.6548 2.35899 11.6548 2.35728 11.6548C2.35558 11.6548 2.35388 11.6548 2.35219 11.6548C2.35049 11.6548 2.34881 11.6548 2.34713 11.6548C2.34544 11.6548 2.34377 11.6548 2.3421 11.6548C2.34043 11.6548 2.33877 11.6548 2.33711 11.6548C2.33545 11.6548 2.3338 11.6548 2.33216 11.6548C2.33051 11.6548 2.32887 11.6548 2.32724 11.6548C2.3256 11.6548 2.32398 11.6548 2.32236 11.6548C2.32074 11.6548 2.31912 11.6548 2.31751 11.6548C2.3159 11.6548 2.3143 11.6548 2.3127 11.6548C2.31111 11.6548 2.30952 11.6548 2.30793 11.6548C2.30635 11.6548 2.30477 11.6548 2.3032 11.6548C2.30163 11.6548 2.30006 11.6548 2.2985 11.6548C2.29694 11.6548 2.29539 11.6548 2.29384 11.6548C2.2923 11.6548 2.29076 11.6548 2.28922 11.6548C2.28769 11.6548 2.28616 11.6548 2.28464 11.6548C2.28312 11.6548 2.2816 11.6548 2.28009 11.6548C2.27858 11.6548 2.27708 11.6548 2.27559 11.6548C2.27409 11.6548 2.2726 11.6548 2.27112 11.6548C2.26963 11.6548 2.26816 11.6548 2.26669 11.6548C2.26522 11.6548 2.26375 11.6548 2.26229 11.6548C2.26084 11.6548 2.25939 11.6548 2.25794 11.6548C2.2565 11.6548 2.25506 11.6548 2.25363 11.6548C2.2522 11.6548 2.25077 11.6548 2.24935 11.6548C2.24793 11.6548 2.24652 11.6548 2.24512 11.6548C2.24371 11.6548 2.24231 11.6548 2.24092 11.6548C2.23953 11.6548 2.23814 11.6548 2.23676 11.6548C2.23538 11.6548 2.23401 11.6548 2.23265 11.6548C2.23128 11.6548 2.22992 11.6548 2.22857 11.6548C2.22722 11.6548 2.22587 11.6548 2.22453 11.6548C2.2232 11.6548 2.22186 11.6548 2.22054 11.6548C2.21921 11.6548 2.21789 11.6548 2.21658 11.6548C2.21527 11.6548 2.21397 11.6548 2.21267 11.6548C2.21137 11.6548 2.21008 11.6548 2.20879 11.6548C2.20751 11.6548 2.20623 11.6548 2.20496 11.6548C2.20369 11.6548 2.20243 11.6548 2.20117 11.6548C2.19991 11.6548 2.19866 11.6548 2.19742 11.6548C2.19618 11.6548 2.19494 11.6548 2.19371 11.6548C2.19248 11.6548 2.19126 11.6548 2.19004 11.6548C2.18883 11.6548 2.18762 11.6548 2.18642 11.6548C2.18522 11.6548 2.18402 11.6548 2.18284 11.6548C2.18165 11.6548 2.18047 11.6548 2.1793 11.6548C2.17812 11.6548 2.17696 11.6548 2.1758 11.6548C2.17464 11.6548 2.17349 11.6548 2.17234 11.6548C2.1712 11.6548 2.17006 11.6548 2.16893 11.6548C2.1678 11.6548 2.16668 11.6548 2.16556 11.6548C2.16444 11.6548 2.16334 11.6548 2.16223 11.6548C2.16113 11.6548 2.16004 11.6548 2.15895 11.6548C2.15786 11.6548 2.15678 11.6548 2.15571 11.6548C2.15464 11.6548 2.15357 11.6548 2.15251 11.6548C2.15146 11.6548 2.15041 11.6548 2.14936 11.6548C2.14832 11.6548 2.14728 11.6548 2.14625 11.6548C2.14522 11.6548 2.1442 11.6548 2.14319 11.6548C2.14218 11.6548 2.14117 11.6548 2.14017 11.6548C2.13917 11.6548 2.13818 11.6548 2.13719 11.6548C2.13621 11.6548 2.13523 11.6548 2.13426 11.6548C2.13329 11.6548 2.13233 11.6548 2.13138 11.6548C2.13042 11.6548 2.12948 11.6548 2.12854 11.6548C2.1276 11.6548 2.12666 11.6548 2.12574 11.6548C2.12482 11.6548 2.1239 11.6548 2.12299 11.6548C2.12208 11.6548 2.12118 11.6548 2.12028 11.6548C2.11939 11.6548 2.1185 11.6548 2.11762 11.6548V11.7548C2.1185 11.7548 2.11939 11.7548 2.12028 11.7548C2.12118 11.7548 2.12208 11.7548 2.12299 11.7548C2.1239 11.7548 2.12482 11.7548 2.12574 11.7548C2.12666 11.7548 2.1276 11.7548 2.12854 11.7548C2.12948 11.7548 2.13042 11.7548 2.13138 11.7548C2.13233 11.7548 2.13329 11.7548 2.13426 11.7548C2.13523 11.7548 2.13621 11.7548 2.13719 11.7548C2.13818 11.7548 2.13917 11.7548 2.14017 11.7548C2.14117 11.7548 2.14218 11.7548 2.14319 11.7548C2.1442 11.7548 2.14522 11.7548 2.14625 11.7548C2.14728 11.7548 2.14832 11.7548 2.14936 11.7548C2.15041 11.7548 2.15146 11.7548 2.15251 11.7548C2.15357 11.7548 2.15464 11.7548 2.15571 11.7548C2.15678 11.7548 2.15786 11.7548 2.15895 11.7548C2.16004 11.7548 2.16113 11.7548 2.16223 11.7548C2.16334 11.7548 2.16444 11.7548 2.16556 11.7548C2.16668 11.7548 2.1678 11.7548 2.16893 11.7548C2.17006 11.7548 2.1712 11.7548 2.17234 11.7548C2.17349 11.7548 2.17464 11.7548 2.1758 11.7548C2.17696 11.7548 2.17812 11.7548 2.1793 11.7548C2.18047 11.7548 2.18165 11.7548 2.18284 11.7548C2.18402 11.7548 2.18522 11.7548 2.18642 11.7548C2.18762 11.7548 2.18883 11.7548 2.19004 11.7548C2.19126 11.7548 2.19248 11.7548 2.19371 11.7548C2.19494 11.7548 2.19618 11.7548 2.19742 11.7548C2.19866 11.7548 2.19991 11.7548 2.20117 11.7548C2.20243 11.7548 2.20369 11.7548 2.20496 11.7548C2.20623 11.7548 2.20751 11.7548 2.20879 11.7548C2.21008 11.7548 2.21137 11.7548 2.21267 11.7548C2.21397 11.7548 2.21527 11.7548 2.21658 11.7548C2.21789 11.7548 2.21921 11.7548 2.22054 11.7548C2.22186 11.7548 2.2232 11.7548 2.22453 11.7548C2.22587 11.7548 2.22722 11.7548 2.22857 11.7548C2.22992 11.7548 2.23128 11.7548 2.23265 11.7548C2.23401 11.7548 2.23538 11.7548 2.23676 11.7548C2.23814 11.7548 2.23953 11.7548 2.24092 11.7548C2.24231 11.7548 2.24371 11.7548 2.24512 11.7548C2.24652 11.7548 2.24793 11.7548 2.24935 11.7548C2.25077 11.7548 2.2522 11.7548 2.25363 11.7548C2.25506 11.7548 2.2565 11.7548 2.25794 11.7548C2.25939 11.7548 2.26084 11.7548 2.26229 11.7548C2.26375 11.7548 2.26522 11.7548 2.26669 11.7548C2.26816 11.7548 2.26963 11.7548 2.27112 11.7548C2.2726 11.7548 2.27409 11.7548 2.27559 11.7548C2.27708 11.7548 2.27858 11.7548 2.28009 11.7548C2.2816 11.7548 2.28312 11.7548 2.28464 11.7548C2.28616 11.7548 2.28769 11.7548 2.28922 11.7548C2.29076 11.7548 2.2923 11.7548 2.29384 11.7548C2.29539 11.7548 2.29694 11.7548 2.2985 11.7548C2.30006 11.7548 2.30163 11.7548 2.3032 11.7548C2.30477 11.7548 2.30635 11.7548 2.30793 11.7548C2.30952 11.7548 2.31111 11.7548 2.3127 11.7548C2.3143 11.7548 2.3159 11.7548 2.31751 11.7548C2.31912 11.7548 2.32074 11.7548 2.32236 11.7548C2.32398 11.7548 2.3256 11.7548 2.32724 11.7548C2.32887 11.7548 2.33051 11.7548 2.33216 11.7548C2.3338 11.7548 2.33545 11.7548 2.33711 11.7548C2.33877 11.7548 2.34043 11.7548 2.3421 11.7548C2.34377 11.7548 2.34544 11.7548 2.34713 11.7548C2.34881 11.7548 2.35049 11.7548 2.35219 11.7548C2.35388 11.7548 2.35558 11.7548 2.35728 11.7548C2.35899 11.7548 2.3607 11.7548 2.36242 11.7548C2.36413 11.7548 2.36586 11.7548 2.36759 11.7548C2.36931 11.7548 2.37105 11.7548 2.37279 11.7548C2.37453 11.7548 2.37627 11.7548 2.37803 11.7548C2.37978 11.7548 2.38154 11.7548 2.3833 11.7548C2.38506 11.7548 2.38683 11.7548 2.38861 11.7548C2.39038 11.7548 2.39216 11.7548 2.39395 11.7548C2.39573 11.7548 2.39753 11.7548 2.39932 11.7548C2.40112 11.7548 2.40292 11.7548 2.40473 11.7548C2.40654 11.7548 2.40836 11.7548 2.41018 11.7548C2.412 11.7548 2.41382 11.7548 2.41565 11.7548C2.41749 11.7548 2.41932 11.7548 2.42117 11.7548C2.42301 11.7548 2.42486 11.7548 2.42671 11.7548C2.42856 11.7548 2.43042 11.7548 2.43229 11.7548C2.43415 11.7548 2.43602 11.7548 2.4379 11.7548C2.43977 11.7548 2.44165 11.7548 2.44354 11.7548C2.44543 11.7548 2.44732 11.7548 2.44922 11.7548C2.45111 11.7548 2.45302 11.7548 2.45493 11.7548C2.45683 11.7548 2.45875 11.7548 2.46067 11.7548C2.46259 11.7548 2.46451 11.7548 2.46644 11.7548C2.46837 11.7548 2.4703 11.7548 2.47224 11.7548C2.47418 11.7548 2.47613 11.7548 2.47808 11.7548C2.48003 11.7548 2.48199 11.7548 2.48395 11.7548C2.48591 11.7548 2.48788 11.7548 2.48985 11.7548C2.49182 11.7548 2.4938 11.7548 2.49578 11.7548C2.49776 11.7548 2.49975 11.7548 2.50174 11.7548C2.50374 11.7548 2.50573 11.7548 2.50774 11.7548C2.50974 11.7548 2.51175 11.7548 2.51376 11.7548C2.51577 11.7548 2.51779 11.7548 2.51981 11.7548C2.52184 11.7548 2.52387 11.7548 2.5259 11.7548C2.52793 11.7548 2.52997 11.7548 2.53202 11.7548C2.53406 11.7548 2.53611 11.7548 2.53816 11.7548C2.54021 11.7548 2.54227 11.7548 2.54434 11.7548C2.5464 11.7548 2.54847 11.7548 2.55054 11.7548C2.55261 11.7548 2.55469 11.7548 2.55678 11.7548C2.55886 11.7548 2.56095 11.7548 2.56304 11.7548C2.56513 11.7548 2.56723 11.7548 2.56933 11.7548C2.57144 11.7548 2.57354 11.7548 2.57566 11.7548C2.57777 11.7548 2.57989 11.7548 2.58201 11.7548C2.58413 11.7548 2.58626 11.7548 2.58839 11.7548C2.59052 11.7548 2.59266 11.7548 2.5948 11.7548C2.59694 11.7548 2.59908 11.7548 2.60123 11.7548C2.60338 11.7548 2.60554 11.7548 2.6077 11.7548C2.60986 11.7548 2.61202 11.7548 2.61419 11.7548C2.61636 11.7548 2.61853 11.7548 2.62071 11.7548C2.62289 11.7548 2.62507 11.7548 2.62726 11.7548C2.62945 11.7548 2.63164 11.7548 2.63384 11.7548C2.63604 11.7548 2.63824 11.7548 2.64044 11.7548C2.64265 11.7548 2.64486 11.7548 2.64707 11.7548C2.64929 11.7548 2.65151 11.7548 2.65373 11.7548C2.65596 11.7548 2.65818 11.7548 2.66042 11.7548C2.66265 11.7548 2.66489 11.7548 2.66713 11.7548C2.66937 11.7548 2.67162 11.7548 2.67387 11.7548C2.67612 11.7548 2.67837 11.7548 2.68063 11.7548C2.68289 11.7548 2.68515 11.7548 2.68742 11.7548C2.68969 11.7548 2.69196 11.7548 2.69424 11.7548C2.69651 11.7548 2.69879 11.7548 2.70108 11.7548C2.70336 11.7548 2.70565 11.7548 2.70795 11.7548C2.71024 11.7548 2.71254 11.7548 2.71484 11.7548C2.71714 11.7548 2.71945 11.7548 2.72176 11.7548C2.72407 11.7548 2.72638 11.7548 2.7287 11.7548C2.73102 11.7548 2.73335 11.7548 2.73567 11.7548C2.738 11.7548 2.74033 11.7548 2.74267 11.7548C2.745 11.7548 2.74734 11.7548 2.74968 11.7548C2.75203 11.7548 2.75438 11.7548 2.75673 11.7548C2.75908 11.7548 2.76143 11.7548 2.76379 11.7548C2.76615 11.7548 2.76852 11.7548 2.77089 11.7548C2.77325 11.7548 2.77562 11.7548 2.778 11.7548C2.78038 11.7548 2.78276 11.7548 2.78514 11.7548C2.78752 11.7548 2.78991 11.7548 2.7923 11.7548C2.79469 11.7548 2.79709 11.7548 2.79949 11.7548C2.80189 11.7548 2.80429 11.7548 2.8067 11.7548C2.8091 11.7548 2.81151 11.7548 2.81393 11.7548C2.81634 11.7548 2.81876 11.7548 2.82118 11.7548C2.82361 11.7548 2.82603 11.7548 2.82846 11.7548C2.83089 11.7548 2.83332 11.7548 2.83576 11.7548C2.8382 11.7548 2.84064 11.7548 2.84308 11.7548C2.84553 11.7548 2.84798 11.7548 2.85043 11.7548C2.85288 11.7548 2.85534 11.7548 2.8578 11.7548C2.86026 11.7548 2.86272 11.7548 2.86519 11.7548C2.86765 11.7548 2.87012 11.7548 2.8726 11.7548C2.87507 11.7548 2.87755 11.7548 2.88003 11.7548C2.88251 11.7548 2.88499 11.7548 2.88748 11.7548C2.88997 11.7548 2.89246 11.7548 2.89496 11.7548C2.89745 11.7548 2.89995 11.7548 2.90245 11.7548C2.90495 11.7548 2.90746 11.7548 2.90997 11.7548C2.91248 11.7548 2.91499 11.7548 2.91751 11.7548C2.92002 11.7548 2.92254 11.7548 2.92506 11.7548C2.92759 11.7548 2.93011 11.7548 2.93264 11.7548C2.93517 11.7548 2.9377 11.7548 2.94024 11.7548C2.94278 11.7548 2.94532 11.7548 2.94786 11.7548C2.9504 11.7548 2.95295 11.7548 2.9555 11.7548C2.95805 11.7548 2.9606 11.7548 2.96315 11.7548C2.96571 11.7548 2.96827 11.7548 2.97083 11.7548C2.97339 11.7548 2.97596 11.7548 2.97853 11.7548C2.9811 11.7548 2.98367 11.7548 2.98624 11.7548C2.98882 11.7548 2.9914 11.7548 2.99398 11.7548C2.99656 11.7548 2.99914 11.7548 3.00173 11.7548C3.00432 11.7548 3.00691 11.7548 3.0095 11.7548C3.0121 11.7548 3.0147 11.7548 3.01729 11.7548C3.01989 11.7548 3.0225 11.7548 3.0251 11.7548C3.02771 11.7548 3.03032 11.7548 3.03293 11.7548C3.03554 11.7548 3.03816 11.7548 3.04078 11.7548C3.04339 11.7548 3.04601 11.7548 3.04864 11.7548C3.05126 11.7548 3.05389 11.7548 3.05652 11.7548C3.05915 11.7548 3.06178 11.7548 3.06442 11.7548C3.06705 11.7548 3.06969 11.7548 3.07233 11.7548C3.07497 11.7548 3.07762 11.7548 3.08026 11.7548C3.08291 11.7548 3.08556 11.7548 3.08821 11.7548C3.09086 11.7548 3.09352 11.7548 3.09618 11.7548C3.09884 11.7548 3.1015 11.7548 3.10416 11.7548C3.10682 11.7548 3.10949 11.7548 3.11216 11.7548C3.11483 11.7548 3.1175 11.7548 3.12017 11.7548C3.12285 11.7548 3.12552 11.7548 3.1282 11.7548C3.13088 11.7548 3.13357 11.7548 3.13625 11.7548C3.13894 11.7548 3.14162 11.7548 3.14431 11.7548C3.147 11.7548 3.1497 11.7548 3.15239 11.7548C3.15509 11.7548 3.15779 11.7548 3.16049 11.7548C3.16319 11.7548 3.16589 11.7548 3.16859 11.7548C3.1713 11.7548 3.17401 11.7548 3.17672 11.7548C3.17943 11.7548 3.18214 11.7548 3.18486 11.7548C3.18757 11.7548 3.19029 11.7548 3.19301 11.7548C3.19573 11.7548 3.19845 11.7548 3.20118 11.7548C3.2039 11.7548 3.20663 11.7548 3.20936 11.7548C3.21209 11.7548 3.21482 11.7548 3.21756 11.7548C3.22029 11.7548 3.22303 11.7548 3.22577 11.7548C3.22851 11.7548 3.23125 11.7548 3.23399 11.7548C3.23673 11.7548 3.23948 11.7548 3.24223 11.7548C3.24498 11.7548 3.24773 11.7548 3.25048 11.7548C3.25323 11.7548 3.25599 11.7548 3.25874 11.7548C3.2615 11.7548 3.26426 11.7548 3.26702 11.7548C3.26978 11.7548 3.27255 11.7548 3.27531 11.7548C3.27808 11.7548 3.28085 11.7548 3.28362 11.7548C3.28639 11.7548 3.28916 11.7548 3.29193 11.7548C3.29471 11.7548 3.29748 11.7548 3.30026 11.7548C3.30304 11.7548 3.30582 11.7548 3.3086 11.7548C3.31138 11.7548 3.31417 11.7548 3.31695 11.7548C3.31974 11.7548 3.32253 11.7548 3.32532 11.7548C3.32811 11.7548 3.3309 11.7548 3.3337 11.7548C3.33649 11.7548 3.33929 11.7548 3.34208 11.7548C3.34488 11.7548 3.34768 11.7548 3.35048 11.7548C3.35329 11.7548 3.35609 11.7548 3.3589 11.7548C3.3617 11.7548 3.36451 11.7548 3.36732 11.7548C3.37013 11.7548 3.37294 11.7548 3.37575 11.7548C3.37856 11.7548 3.38138 11.7548 3.38419 11.7548C3.38701 11.7548 3.38983 11.7548 3.39265 11.7548C3.39547 11.7548 3.39829 11.7548 3.40111 11.7548C3.40394 11.7548 3.40676 11.7548 3.40959 11.7548C3.41242 11.7548 3.41524 11.7548 3.41807 11.7548C3.4209 11.7548 3.42374 11.7548 3.42657 11.7548C3.4294 11.7548 3.43224 11.7548 3.43507 11.7548C3.43791 11.7548 3.44075 11.7548 3.44359 11.7548C3.44643 11.7548 3.44927 11.7548 3.45211 11.7548C3.45495 11.7548 3.4578 11.7548 3.46064 11.7548C3.46349 11.7548 3.46634 11.7548 3.46919 11.7548C3.47203 11.7548 3.47489 11.7548 3.47774 11.7548C3.48059 11.7548 3.48344 11.7548 3.4863 11.7548C3.48915 11.7548 3.49201 11.7548 3.49486 11.7548C3.49772 11.7548 3.50058 11.7548 3.50344 11.7548C3.5063 11.7548 3.50916 11.7548 3.51202 11.7548C3.51489 11.7548 3.51775 11.7548 3.52062 11.7548C3.52348 11.7548 3.52635 11.7548 3.52922 11.7548C3.53209 11.7548 3.53496 11.7548 3.53783 11.7548C3.5407 11.7548 3.54357 11.7548 3.54644 11.7548C3.54931 11.7548 3.55219 11.7548 3.55506 11.7548C3.55794 11.7548 3.56082 11.7548 3.56369 11.7548C3.56657 11.7548 3.56945 11.7548 3.57233 11.7548C3.57521 11.7548 3.57809 11.7548 3.58097 11.7548C3.58386 11.7548 3.58674 11.7548 3.58963 11.7548C3.59251 11.7548 3.5954 11.7548 3.59828 11.7548C3.60117 11.7548 3.60406 11.7548 3.60695 11.7548C3.60983 11.7548 3.61272 11.7548 3.61561 11.7548C3.61851 11.7548 3.6214 11.7548 3.62429 11.7548C3.62718 11.7548 3.63008 11.7548 3.63297 11.7548C3.63587 11.7548 3.63876 11.7548 3.64166 11.7548C3.64455 11.7548 3.64745 11.7548 3.65035 11.7548C3.65325 11.7548 3.65615 11.7548 3.65905 11.7548C3.66195 11.7548 3.66485 11.7548 3.66775 11.7548C3.67065 11.7548 3.67355 11.7548 3.67646 11.7548C3.67936 11.7548 3.68226 11.7548 3.68517 11.7548C3.68807 11.7548 3.69098 11.7548 3.69389 11.7548C3.69679 11.7548 3.6997 11.7548 3.70261 11.7548C3.70551 11.7548 3.70842 11.7548 3.71133 11.7548C3.71424 11.7548 3.71715 11.7548 3.72006 11.7548C3.72297 11.7548 3.72588 11.7548 3.72879 11.7548C3.73171 11.7548 3.73462 11.7548 3.73753 11.7548C3.74044 11.7548 3.74336 11.7548 3.74627 11.7548C3.74919 11.7548 3.7521 11.7548 3.75502 11.7548C3.75793 11.7548 3.76085 11.7548 3.76376 11.7548C3.76668 11.7548 3.7696 11.7548 3.77251 11.7548C3.77543 11.7548 3.77835 11.7548 3.78127 11.7548C3.78419 11.7548 3.7871 11.7548 3.79002 11.7548C3.79294 11.7548 3.79586 11.7548 3.79878 11.7548C3.8017 11.7548 3.80462 11.7548 3.80754 11.7548C3.81046 11.7548 3.81338 11.7548 3.8163 11.7548C3.81923 11.7548 3.82215 11.7548 3.82507 11.7548C3.82799 11.7548 3.83091 11.7548 3.83384 11.7548C3.83676 11.7548 3.83968 11.7548 3.8426 11.7548C3.84553 11.7548 3.84845 11.7548 3.85137 11.7548C3.8543 11.7548 3.85722 11.7548 3.86015 11.7548C3.86307 11.7548 3.86599 11.7548 3.86892 11.7548C3.87184 11.7548 3.87477 11.7548 3.87769 11.7548C3.88062 11.7548 3.88354 11.7548 3.88647 11.7548C3.88939 11.7548 3.89232 11.7548 3.89524 11.7548C3.89817 11.7548 3.90109 11.7548 3.90402 11.7548C3.90694 11.7548 3.90987 11.7548 3.91279 11.7548C3.91572 11.7548 3.91864 11.7548 3.92157 11.7548C3.92449 11.7548 3.92742 11.7548 3.93034 11.7548C3.93327 11.7548 3.93619 11.7548 3.93912 11.7548C3.94204 11.7548 3.94497 11.7548 3.94789 11.7548C3.95082 11.7548 3.95374 11.7548 3.95667 11.7548C3.95959 11.7548 3.96252 11.7548 3.96544 11.7548C3.96837 11.7548 3.97129 11.7548 3.97422 11.7548C3.97714 11.7548 3.98006 11.7548 3.98299 11.7548C3.98591 11.7548 3.98883 11.7548 3.99176 11.7548C3.99468 11.7548 3.9976 11.7548 4.00053 11.7548C4.00345 11.7548 4.00637 11.7548 4.00929 11.7548C4.01222 11.7548 4.01514 11.7548 4.01806 11.7548C4.02098 11.7548 4.0239 11.7548 4.02682 11.7548C4.02975 11.7548 4.03267 11.7548 4.03559 11.7548C4.03851 11.7548 4.04143 11.7548 4.04435 11.7548C4.04727 11.7548 4.05018 11.7548 4.0531 11.7548C4.05602 11.7548 4.05894 11.7548 4.06186 11.7548C4.06478 11.7548 4.06769 11.7548 4.07061 11.7548C4.07353 11.7548 4.07644 11.7548 4.07936 11.7548C4.08227 11.7548 4.08519 11.7548 4.0881 11.7548C4.09102 11.7548 4.09393 11.7548 4.09685 11.7548C4.09976 11.7548 4.10267 11.7548 4.10559 11.7548C4.1085 11.7548 4.11141 11.7548 4.11432 11.7548C4.11723 11.7548 4.12014 11.7548 4.12305 11.7548C4.12596 11.7548 4.12887 11.7548 4.13178 11.7548C4.13469 11.7548 4.1376 11.7548 4.1405 11.7548C4.14341 11.7548 4.14632 11.7548 4.14922 11.7548C4.15213 11.7548 4.15503 11.7548 4.15794 11.7548C4.16084 11.7548 4.16374 11.7548 4.16665 11.7548C4.16955 11.7548 4.17245 11.7548 4.17535 11.7548C4.17825 11.7548 4.18115 11.7548 4.18405 11.7548C4.18695 11.7548 4.18985 11.7548 4.19275 11.7548C4.19564 11.7548 4.19854 11.7548 4.20144 11.7548C4.20433 11.7548 4.20723 11.7548 4.21012 11.7548C4.21301 11.7548 4.21591 11.7548 4.2188 11.7548C4.22169 11.7548 4.22458 11.7548 4.22747 11.7548C4.23036 11.7548 4.23325 11.7548 4.23614 11.7548C4.23903 11.7548 4.24191 11.7548 4.2448 11.7548C4.24768 11.7548 4.25057 11.7548 4.25345 11.7548C4.25634 11.7548 4.25922 11.7548 4.2621 11.7548C4.26498 11.7548 4.26786 11.7548 4.27074 11.7548C4.27362 11.7548 4.2765 11.7548 4.27937 11.7548C4.28225 11.7548 4.28513 11.7548 4.288 11.7548C4.29087 11.7548 4.29375 11.7548 4.29662 11.7548C4.29949 11.7548 4.30236 11.7548 4.30523 11.7548C4.3081 11.7548 4.31097 11.7548 4.31384 11.7548C4.3167 11.7548 4.31957 11.7548 4.32243 11.7548C4.3253 11.7548 4.32816 11.7548 4.33102 11.7548C4.33388 11.7548 4.33674 11.7548 4.3396 11.7548C4.34246 11.7548 4.34532 11.7548 4.34817 11.7548C4.35103 11.7548 4.35389 11.7548 4.35674 11.7548C4.35959 11.7548 4.36244 11.7548 4.36529 11.7548C4.36814 11.7548 4.37099 11.7548 4.37384 11.7548C4.37669 11.7548 4.37953 11.7548 4.38238 11.7548C4.38522 11.7548 4.38807 11.7548 4.39091 11.7548C4.39375 11.7548 4.39659 11.7548 4.39943 11.7548C4.40226 11.7548 4.4051 11.7548 4.40794 11.7548C4.41077 11.7548 4.4136 11.7548 4.41644 11.7548C4.41927 11.7548 4.4221 11.7548 4.42493 11.7548C4.42775 11.7548 4.43058 11.7548 4.43341 11.7548C4.43623 11.7548 4.43906 11.7548 4.44188 11.7548C4.4447 11.7548 4.44752 11.7548 4.45034 11.7548C4.45316 11.7548 4.45597 11.7548 4.45879 11.7548C4.4616 11.7548 4.46441 11.7548 4.46723 11.7548C4.47004 11.7548 4.47285 11.7548 4.47565 11.7548C4.47846 11.7548 4.48127 11.7548 4.48407 11.7548C4.48687 11.7548 4.48968 11.7548 4.49248 11.7548C4.49528 11.7548 4.49807 11.7548 4.50087 11.7548C4.50367 11.7548 4.50646 11.7548 4.50925 11.7548C4.51205 11.7548 4.51484 11.7548 4.51762 11.7548C4.52041 11.7548 4.5232 11.7548 4.52598 11.7548C4.52877 11.7548 4.53155 11.7548 4.53433 11.7548C4.53711 11.7548 4.53989 11.7548 4.54267 11.7548C4.54544 11.7548 4.54822 11.7548 4.55099 11.7548C4.55376 11.7548 4.55653 11.7548 4.5593 11.7548C4.56207 11.7548 4.56483 11.7548 4.5676 11.7548C4.57036 11.7548 4.57312 11.7548 4.57588 11.7548C4.57864 11.7548 4.5814 11.7548 4.58415 11.7548C4.58691 11.7548 4.58966 11.7548 4.59241 11.7548C4.59516 11.7548 4.59791 11.7548 4.60066 11.7548C4.6034 11.7548 4.60615 11.7548 4.60889 11.7548C4.61163 11.7548 4.61437 11.7548 4.61711 11.7548C4.61984 11.7548 4.62258 11.7548 4.62531 11.7548C4.62804 11.7548 4.63077 11.7548 4.6335 11.7548C4.63623 11.7548 4.63895 11.7548 4.64167 11.7548C4.6444 11.7548 4.64712 11.7548 4.64984 11.7548C4.65255 11.7548 4.65527 11.7548 4.65798 11.7548C4.66069 11.7548 4.6634 11.7548 4.66611 11.7548C4.66882 11.7548 4.67153 11.7548 4.67423 11.7548C4.67693 11.7548 4.67963 11.7548 4.68233 11.7548C4.68503 11.7548 4.68772 11.7548 4.69042 11.7548C4.69311 11.7548 4.6958 11.7548 4.69849 11.7548C4.70118 11.7548 4.70386 11.7548 4.70654 11.7548C4.70923 11.7548 4.71191 11.7548 4.71458 11.7548C4.71726 11.7548 4.71993 11.7548 4.72261 11.7548C4.72528 11.7548 4.72795 11.7548 4.73061 11.7548C4.73328 11.7548 4.73594 11.7548 4.7386 11.7548C4.74127 11.7548 4.74392 11.7548 4.74658 11.7548C4.74923 11.7548 4.75189 11.7548 4.75454 11.7548C4.75719 11.7548 4.75983 11.7548 4.76248 11.7548C4.76512 11.7548 4.76776 11.7548 4.7704 11.7548C4.77304 11.7548 4.77568 11.7548 4.77831 11.7548C4.78094 11.7548 4.78357 11.7548 4.7862 11.7548C4.78883 11.7548 4.79145 11.7548 4.79407 11.7548C4.79669 11.7548 4.79931 11.7548 4.80193 11.7548C4.80454 11.7548 4.80715 11.7548 4.80976 11.7548C4.81237 11.7548 4.81498 11.7548 4.81758 11.7548C4.82018 11.7548 4.82278 11.7548 4.82538 11.7548C4.82798 11.7548 4.83057 11.7548 4.83316 11.7548C4.83575 11.7548 4.83834 11.7548 4.84093 11.7548C4.84351 11.7548 4.84609 11.7548 4.84867 11.7548C4.85125 11.7548 4.85382 11.7548 4.8564 11.7548C4.85897 11.7548 4.86154 11.7548 4.8641 11.7548C4.86667 11.7548 4.86923 11.7548 4.87179 11.7548C4.87435 11.7548 4.87691 11.7548 4.87946 11.7548C4.88201 11.7548 4.88456 11.7548 4.88711 11.7548C4.88965 11.7548 4.8922 11.7548 4.89474 11.7548C4.89728 11.7548 4.89981 11.7548 4.90234 11.7548C4.90488 11.7548 4.90741 11.7548 4.90993 11.7548C4.91246 11.7548 4.91498 11.7548 4.9175 11.7548C4.92002 11.7548 4.92254 11.7548 4.92505 11.7548C4.92756 11.7548 4.93007 11.7548 4.93258 11.7548C4.93508 11.7548 4.93759 11.7548 4.94008 11.7548C4.94258 11.7548 4.94508 11.7548 4.94757 11.7548C4.95006 11.7548 4.95255 11.7548 4.95504 11.7548C4.95752 11.7548 4.96 11.7548 4.96248 11.7548C4.96496 11.7548 4.96743 11.7548 4.9699 11.7548C4.97237 11.7548 4.97484 11.7548 4.9773 11.7548C4.97976 11.7548 4.98222 11.7548 4.98468 11.7548C4.98714 11.7548 4.98959 11.7548 4.99204 11.7548C4.99449 11.7548 4.99693 11.7548 4.99937 11.7548C5.00181 11.7548 5.00425 11.7548 5.00668 11.7548C5.00912 11.7548 5.01155 11.7548 5.01397 11.7548C5.0164 11.7548 5.01882 11.7548 5.02124 11.7548C5.02366 11.7548 5.02607 11.7548 5.02849 11.7548C5.0309 11.7548 5.0333 11.7548 5.03571 11.7548C5.03811 11.7548 5.04051 11.7548 5.0429 11.7548C5.0453 11.7548 5.04769 11.7548 5.05008 11.7548C5.05247 11.7548 5.05485 11.7548 5.05723 11.7548C5.05961 11.7548 5.06199 11.7548 5.06436 11.7548C5.06673 11.7548 5.0691 11.7548 5.07146 11.7548C5.07383 11.7548 5.07619 11.7548 5.07854 11.7548C5.0809 11.7548 5.08325 11.7548 5.0856 11.7548C5.08795 11.7548 5.09029 11.7548 5.09263 11.7548C5.09497 11.7548 5.0973 11.7548 5.09964 11.7548C5.10197 11.7548 5.10429 11.7548 5.10662 11.7548C5.10894 11.7548 5.11126 11.7548 5.11357 11.7548C5.11589 11.7548 5.1182 11.7548 5.12051 11.7548C5.12281 11.7548 5.12512 11.7548 5.12741 11.7548C5.12971 11.7548 5.13201 11.7548 5.1343 11.7548C5.13659 11.7548 5.13887 11.7548 5.14115 11.7548C5.14343 11.7548 5.14571 11.7548 5.14798 11.7548C5.15025 11.7548 5.15252 11.7548 5.15479 11.7548C5.15705 11.7548 5.15931 11.7548 5.16156 11.7548C5.16382 11.7548 5.16607 11.7548 5.16832 11.7548C5.17056 11.7548 5.1728 11.7548 5.17504 11.7548C5.17728 11.7548 5.17951 11.7548 5.18174 11.7548C5.18397 11.7548 5.18619 11.7548 5.18841 11.7548C5.19063 11.7548 5.19285 11.7548 5.19506 11.7548C5.19727 11.7548 5.19948 11.7548 5.20168 11.7548C5.20388 11.7548 5.20608 11.7548 5.20827 11.7548C5.21046 11.7548 5.21265 11.7548 5.21483 11.7548C5.21701 11.7548 5.21919 11.7548 5.22137 11.7548C5.22354 11.7548 5.22571 11.7548 5.22788 11.7548C5.23004 11.7548 5.2322 11.7548 5.23436 11.7548C5.23651 11.7548 5.23866 11.7548 5.24081 11.7548C5.24295 11.7548 5.2451 11.7548 5.24723 11.7548C5.24937 11.7548 5.2515 11.7548 5.25363 11.7548C5.25575 11.7548 5.25788 11.7548 5.25999 11.7548C5.26211 11.7548 5.26422 11.7548 5.26633 11.7548C5.26844 11.7548 5.27054 11.7548 5.27264 11.7548C5.27474 11.7548 5.27683 11.7548 5.27892 11.7548C5.28101 11.7548 5.28309 11.7548 5.28517 11.7548C5.28725 11.7548 5.28932 11.7548 5.29139 11.7548C5.29346 11.7548 5.29552 11.7548 5.29758 11.7548C5.29964 11.7548 5.3017 11.7548 5.30374 11.7548C5.30579 11.7548 5.30784 11.7548 5.30988 11.7548C5.31191 11.7548 5.31395 11.7548 5.31598 11.7548C5.31801 11.7548 5.32003 11.7548 5.32205 11.7548C5.32407 11.7548 5.32608 11.7548 5.32809 11.7548C5.3301 11.7548 5.3321 11.7548 5.3341 11.7548C5.3361 11.7548 5.33809 11.7548 5.34008 11.7548C5.34206 11.7548 5.34405 11.7548 5.34602 11.7548C5.348 11.7548 5.34997 11.7548 5.35194 11.7548C5.35391 11.7548 5.35587 11.7548 5.35783 11.7548C5.35978 11.7548 5.36173 11.7548 5.36368 11.7548C5.36562 11.7548 5.36757 11.7548 5.3695 11.7548C5.37144 11.7548 5.37337 11.7548 5.37529 11.7548C5.37722 11.7548 5.37913 11.7548 5.38105 11.7548C5.38296 11.7548 5.38487 11.7548 5.38677 11.7548C5.38868 11.7548 5.39058 11.7548 5.39247 11.7548C5.39436 11.7548 5.39625 11.7548 5.39813 11.7548C5.40001 11.7548 5.40189 11.7548 5.40376 11.7548C5.40563 11.7548 5.40749 11.7548 5.40935 11.7548C5.41121 11.7548 5.41306 11.7548 5.41491 11.7548C5.41676 11.7548 5.4186 11.7548 5.42044 11.7548C5.42228 11.7548 5.42411 11.7548 5.42594 11.7548C5.42776 11.7548 5.42958 11.7548 5.4314 11.7548C5.43321 11.7548 5.43502 11.7548 5.43683 11.7548C5.43863 11.7548 5.44043 11.7548 5.44222 11.7548C5.44401 11.7548 5.4458 11.7548 5.44758 11.7548C5.44936 11.7548 5.45114 11.7548 5.45291 11.7548C5.45468 11.7548 5.45644 11.7548 5.4582 11.7548C5.45995 11.7548 5.46171 11.7548 5.46345 11.7548C5.4652 11.7548 5.46694 11.7548 5.46867 11.7548C5.47041 11.7548 5.47214 11.7548 5.47386 11.7548C5.47558 11.7548 5.4773 11.7548 5.47901 11.7548C5.48072 11.7548 5.48243 11.7548 5.48413 11.7548C5.48583 11.7548 5.48752 11.7548 5.48921 11.7548C5.4909 11.7548 5.49258 11.7548 5.49425 11.7548C5.49593 11.7548 5.4976 11.7548 5.49926 11.7548C5.50093 11.7548 5.50258 11.7548 5.50424 11.7548C5.50589 11.7548 5.50753 11.7548 5.50917 11.7548C5.51081 11.7548 5.51245 11.7548 5.51407 11.7548C5.5157 11.7548 5.51732 11.7548 5.51894 11.7548C5.52055 11.7548 5.52216 11.7548 5.52377 11.7548C5.52537 11.7548 5.52697 11.7548 5.52856 11.7548C5.53015 11.7548 5.53173 11.7548 5.53331 11.7548C5.53489 11.7548 5.53646 11.7548 5.53803 11.7548C5.53959 11.7548 5.54115 11.7548 5.54271 11.7548C5.54426 11.7548 5.54581 11.7548 5.54735 11.7548C5.54889 11.7548 5.55042 11.7548 5.55195 11.7548C5.55348 11.7548 5.555 11.7548 5.55652 11.7548C5.55803 11.7548 5.55954 11.7548 5.56104 11.7548C5.56255 11.7548 5.56404 11.7548 5.56553 11.7548C5.56702 11.7548 5.56851 11.7548 5.56998 11.7548C5.57146 11.7548 5.57293 11.7548 5.5744 11.7548C5.57586 11.7548 5.57732 11.7548 5.57877 11.7548C5.58022 11.7548 5.58167 11.7548 5.58311 11.7548C5.58454 11.7548 5.58598 11.7548 5.5874 11.7548C5.58883 11.7548 5.59025 11.7548 5.59166 11.7548C5.59307 11.7548 5.59448 11.7548 5.59587 11.7548C5.59727 11.7548 5.59867 11.7548 5.60005 11.7548C5.60144 11.7548 5.60282 11.7548 5.60419 11.7548C5.60556 11.7548 5.60693 11.7548 5.60829 11.7548C5.60965 11.7548 5.611 11.7548 5.61235 11.7548C5.61369 11.7548 5.61503 11.7548 5.61636 11.7548C5.6177 11.7548 5.61902 11.7548 5.62034 11.7548C5.62166 11.7548 5.62297 11.7548 5.62428 11.7548C5.62558 11.7548 5.62688 11.7548 5.62817 11.7548C5.62946 11.7548 5.63075 11.7548 5.63203 11.7548C5.6333 11.7548 5.63458 11.7548 5.63584 11.7548C5.6371 11.7548 5.63836 11.7548 5.63961 11.7548C5.64086 11.7548 5.64211 11.7548 5.64334 11.7548C5.64458 11.7548 5.64581 11.7548 5.64703 11.7548V11.6548ZM2.11762 11.6548C1.75603 11.6548 1.46173 11.3606 1.46173 10.9989H1.36173C1.36173 11.4158 1.70081 11.7548 2.11762 11.7548V11.6548ZM1.46173 10.9989V6.76368H1.36173V10.9989H1.46173ZM1.46173 6.76368C1.46173 6.40208 1.75599 6.10778 2.11762 6.10778V6.00778C1.70076 6.00778 1.36173 6.34686 1.36173 6.76368H1.46173ZM2.11762 6.10778H5.64703V6.00778H2.11762V6.10778ZM5.59703 6.05778V11.7048H5.69703V6.05778H5.59703ZM8.42055 15.2342C8.42055 15.5958 8.12629 15.8901 7.76466 15.8901V15.9901C8.18152 15.9901 8.52055 15.651 8.52055 15.2342H8.42055ZM7.76466 15.8901H6.9V15.9901H7.76466V15.8901ZM6.9 15.8901C6.83576 15.8901 6.77403 15.899 6.71529 15.9138L6.73971 16.0107C6.7915 15.9977 6.84499 15.9901 6.9 15.9901V15.8901ZM6.77729 15.9576L6.52168 13.1899L6.4221 13.1991L6.67771 15.9668L6.77729 15.9576ZM6.45608 13.2419L8.45474 13.9081L8.48636 13.8132L6.4877 13.147L6.45608 13.2419ZM8.42055 13.8606V15.2342H8.52055V13.8606H8.42055ZM14.1334 14.2074L7.07462 11.8545L7.043 11.9494L14.1018 14.3023L14.1334 14.2074ZM7.10881 11.9019V5.86068H7.00881V11.9019H7.10881ZM7.07462 5.90811L14.1334 3.55517L14.1018 3.4603L7.043 5.81324L7.07462 5.90811ZM14.0676 3.50774V14.2549H14.1676V3.50774H14.0676ZM16.8911 15.2342C16.8911 15.5958 16.5968 15.8901 16.2352 15.8901V15.9901C16.6521 15.9901 16.9911 15.651 16.9911 15.2342H16.8911ZM16.2352 15.8901C15.8736 15.8901 15.5793 15.5959 15.5793 15.2342H15.4793C15.4793 15.6511 15.8184 15.9901 16.2352 15.9901V15.8901ZM15.5793 15.2342V2.52842H15.4793V15.2342H15.5793ZM15.5793 2.52842C15.5793 2.16683 15.8736 1.87253 16.2352 1.87253V1.77253C15.8183 1.77253 15.4793 2.11161 15.4793 2.52842H15.5793ZM16.2352 1.87253C16.5968 1.87253 16.8911 2.16679 16.8911 2.52842H16.9911C16.9911 2.11156 16.652 1.77253 16.2352 1.77253V1.87253ZM16.8911 2.52842V15.2342H16.9911V2.52842H16.8911ZM23.2939 7.4196H20.4704V7.5196H23.2939V7.4196ZM20.4704 7.4196C20.053 7.4196 19.7145 7.75801 19.7145 8.17548H19.8145C19.8145 7.81324 20.1082 7.5196 20.4704 7.5196V7.4196ZM19.7145 8.17548C19.7145 8.5929 20.0529 8.93137 20.4704 8.93137V8.83137C20.1082 8.83137 19.8145 8.53768 19.8145 8.17548H19.7145ZM20.4704 8.93137H23.2939V8.83137H20.4704V8.93137ZM23.2939 8.93137C23.7114 8.93137 24.0498 8.59295 24.0498 8.17548H23.9498C23.9498 8.53772 23.6561 8.83137 23.2939 8.83137V8.93137ZM24.0498 8.17548C24.0498 7.75801 23.7114 7.4196 23.2939 7.4196V7.5196C23.6562 7.5196 23.9498 7.81324 23.9498 8.17548H24.0498ZM23.9701 3.60218C23.7834 3.22877 23.3293 3.07743 22.9559 3.26416L23.0006 3.3536C23.3246 3.19158 23.7186 3.3229 23.8806 3.6469L23.9701 3.60218ZM22.9559 3.26416L20.1324 4.6759L20.1771 4.76534L23.0006 3.3536L22.9559 3.26416ZM20.1324 4.6759C19.759 4.86262 19.6077 5.31664 19.7944 5.69005L19.8838 5.64532C19.7218 5.32132 19.8531 4.92737 20.1771 4.76534L20.1324 4.6759ZM19.7944 5.69005C19.9812 6.06365 20.4353 6.21474 20.8085 6.02806L20.7638 5.93862C20.44 6.1006 20.0459 5.96951 19.8838 5.64532L19.7944 5.69005ZM20.8085 6.02806L23.632 4.61633L23.5873 4.52688L20.7638 5.93862L20.8085 6.02806ZM23.6321 4.61632C24.0055 4.4296 24.1567 3.97558 23.9701 3.60218L23.8806 3.6469C24.0426 3.97091 23.9113 4.36486 23.5873 4.52688L23.6321 4.61632ZM23.632 11.7346L20.8085 10.3229L20.7638 10.4124L23.5873 11.8241L23.632 11.7346ZM20.8085 10.3229C20.4351 10.1362 19.9811 10.2875 19.7943 10.6609L19.8838 10.7057C20.0458 10.3817 20.4398 10.2503 20.7638 10.4124L20.8085 10.3229ZM19.7943 10.6609C19.6077 11.0343 19.759 11.4883 20.1323 11.6751L20.1771 11.5856C19.8531 11.4236 19.7218 11.0297 19.8838 10.7057L19.7943 10.6609ZM20.1324 11.6751L22.9559 13.0868L23.0006 12.9974L20.1771 11.5856L20.1324 11.6751ZM22.9559 13.0868C23.3293 13.2736 23.7833 13.1221 23.97 12.7488L23.8806 12.7041C23.7186 13.028 23.3246 13.1594 23.0006 12.9974L22.9559 13.0868ZM23.97 12.7488C24.1567 12.3754 24.0054 11.9214 23.632 11.7346L23.5873 11.8241C23.9113 11.9861 24.0425 12.3801 23.8806 12.7041L23.97 12.7488Z" fill="#798291"/>
</svg>
