<svg width="24" height="24" viewBox="0 0 24 24" fill="none" xmlns="http://www.w3.org/2000/svg">
<path d="M23.3999 10.4388C23.3992 10.4383 23.3986 10.4376 23.3981 10.437L13.608 0.647278C13.1907 0.229797 12.6359 0 12.0457 0C11.4556 0 10.9008 0.229797 10.4833 0.647278L0.698328 10.4321C0.695032 10.4354 0.691553 10.4388 0.68844 10.4421C-0.168493 11.304 -0.167029 12.7024 0.692651 13.5621C1.08541 13.955 1.60397 14.1824 2.15859 14.2064C2.1813 14.2086 2.204 14.2097 2.22689 14.2097H2.61691V21.4142C2.61691 22.84 3.77706 24 5.2029 24H9.0331C9.42147 24 9.73623 23.6851 9.73623 23.2969V17.6484C9.73623 16.9979 10.2656 16.4687 10.9162 16.4687H13.1753C13.8259 16.4687 14.3551 16.9979 14.3551 17.6484V23.2969C14.3551 23.6851 14.6698 24 15.0582 24H18.8884C20.3144 24 21.4744 22.84 21.4744 21.4142V14.2097H21.8362C22.4262 14.2097 22.981 13.9799 23.3986 13.5623C24.2592 12.7013 24.2596 11.3004 23.3999 10.4388ZM22.4042 12.568C22.2524 12.7198 22.0506 12.8035 21.8362 12.8035H20.7713C20.3829 12.8035 20.0681 13.1182 20.0681 13.5066V21.4142C20.0681 22.0646 19.539 22.5938 18.8884 22.5938H15.7613V17.6484C15.7613 16.2226 14.6013 15.0624 13.1753 15.0624H10.9162C9.49013 15.0624 8.32998 16.2226 8.32998 17.6484V22.5938H5.2029C4.55251 22.5938 4.02316 22.0646 4.02316 21.4142V13.5066C4.02316 13.1182 3.7084 12.8035 3.32003 12.8035H2.2734C2.26241 12.8027 2.25161 12.8022 2.24044 12.802C2.03097 12.7983 1.8345 12.7152 1.68728 12.5678C1.37417 12.2547 1.37417 11.7451 1.68728 11.4318C1.68746 11.4318 1.68746 11.4316 1.68765 11.4315L1.6882 11.4309L11.4779 1.64154C11.6295 1.48975 11.8311 1.40625 12.0457 1.40625C12.2602 1.40625 12.4618 1.48975 12.6135 1.64154L22.4011 11.4289C22.4025 11.4304 22.4042 11.4318 22.4057 11.4333C22.7171 11.747 22.7166 12.2554 22.4042 12.568Z" fill="#798291"/>
</svg>
