<svg width="24" height="24" viewBox="0 0 24 24" fill="none" xmlns="http://www.w3.org/2000/svg">
<path d="M20.4042 3.59606C18.1781 1.35903 15.1633 0.0845511 12.0076 0.0465088C10.4401 0.0589652 8.89042 0.380177 7.44713 0.991785C6.00384 1.60339 4.69521 2.49341 3.59602 3.61098C1.34987 5.81996 0.0685189 8.82764 0.0315552 11.9778C0.0440116 13.5453 0.36522 15.0949 0.976829 16.5382C1.58844 17.9815 2.47846 19.2902 3.59602 20.3893C5.82061 22.6395 8.84356 23.9205 12.0076 23.9538C14.088 23.9234 16.1258 23.3587 17.9252 22.3141C19.7246 21.2694 21.2254 19.7798 22.2834 17.9882C23.3696 16.1866 23.9517 14.1262 23.9687 12.0225C23.9582 10.4525 23.6379 8.90004 23.0263 7.45405C22.4146 6.00806 21.5235 4.69702 20.4042 3.59606ZM11.4558 21.0306V22.9546C9.85837 22.8699 8.29967 22.4318 6.89204 21.672L7.84654 20.0165C8.97705 20.6143 10.2236 20.9603 11.5005 21.0306H11.4558ZM3.9987 16.109L2.35815 17.0635C1.60479 15.6845 1.16194 14.1574 1.06062 12.5893H2.99946C3.08193 13.8177 3.41702 15.016 3.98378 16.109H3.9987ZM4.52069 7.04122L2.86523 6.08672C3.72151 4.81039 4.82132 3.71565 6.10159 2.86527L7.02626 4.52074C6.03344 5.19295 5.17799 6.0484 4.50579 7.04122H4.52069ZM1.06062 11.5155C1.15112 9.92184 1.5943 8.36819 2.35815 6.96665L3.9987 7.92115C3.4168 9.03574 3.07632 10.2605 2.99946 11.5155H1.06062ZM4.52069 16.9889C5.18428 17.9929 6.04109 18.8548 7.04118 19.5243L6.10159 21.1649C4.81595 20.316 3.71097 19.2212 2.85032 17.9434L4.52069 16.9889ZM19.4348 7.05614C18.7857 6.06022 17.9501 5.19927 16.974 4.52074L17.9136 2.86527C19.1971 3.71162 20.2977 4.80709 21.1499 6.08672L19.4348 7.05614ZM17.0038 2.35819L16.0493 4.01366C14.9483 3.44006 13.7389 3.10468 12.4997 3.02933V1.0905C14.0948 1.16597 15.6534 1.59382 17.0635 2.34328L17.0038 2.35819ZM20.0274 12.0289C20.0304 13.6201 19.5202 15.17 18.6381 16.4942C17.7559 17.8184 16.5006 18.8511 15.0311 19.4614C13.5616 20.0716 11.9441 20.2321 10.3833 19.9224C8.82257 19.6127 7.38885 18.8468 6.26372 17.7217C5.13859 16.5965 4.37267 15.1628 4.06297 13.602C3.75327 12.0413 3.91371 10.4238 4.52399 8.95427C5.13427 7.48479 6.16693 6.22946 7.49117 5.34729C8.81541 4.46513 10.3717 3.9958 11.9628 3.99875C14.0826 4.01395 16.1126 4.85669 17.6199 6.34727C19.1272 7.83784 19.9925 9.8583 20.0314 11.9778L20.0274 12.0289ZM17.8688 21.1649L16.9292 19.5243C17.9261 18.8509 18.7822 17.9897 19.4497 16.9889L21.1052 17.9434C20.2645 19.2133 19.1795 20.3033 17.9136 21.15L17.8688 21.1649ZM12.455 21.0456C13.7166 20.9689 14.9473 20.6231 16.0642 20.0314L17.0187 21.6869C15.6111 22.4467 14.0524 22.8848 12.455 22.9695V21.0456ZM22.8949 12.5296C22.7935 14.0977 22.3507 15.6248 21.5973 17.0038L19.9568 16.0493C20.5387 14.9347 20.8792 13.71 20.956 12.455L22.8949 12.5296ZM22.8949 11.5155H20.956C20.8792 10.2605 20.5387 9.03574 19.9568 7.92115L21.5973 6.96665C22.3799 8.3588 22.8435 9.90739 22.9545 11.5005L22.8949 11.5155ZM11.5005 3.02933C10.2399 3.10095 9.00923 3.44167 7.89128 4.02857L6.93678 2.37311C8.34442 1.61326 9.90311 1.17519 11.5005 1.0905V3.02933Z" fill="#798291"/>
</svg>
