<svg width="20" height="24" viewBox="0 0 20 24" fill="none" xmlns="http://www.w3.org/2000/svg">
<path d="M17.0339 12.4376C16.9495 12.3513 16.8488 12.2827 16.7377 12.2358C16.6265 12.1889 16.5072 12.1645 16.3865 12.1642C16.2659 12.1639 16.1464 12.1876 16.035 12.2339C15.9236 12.2802 15.8225 12.3483 15.7377 12.434C15.6529 12.5198 15.5859 12.6216 15.5408 12.7335C15.4958 12.8454 15.4734 12.9652 15.475 13.0858C15.4767 13.2064 15.5024 13.3255 15.5505 13.4362C15.5987 13.5468 15.6684 13.6467 15.7555 13.7301C16.5268 14.4891 17.1387 15.3944 17.5553 16.393C17.972 17.3917 18.185 18.4635 18.1818 19.5455C18.1818 20.6574 14.9946 22.2728 10 22.2728C5.00538 22.2728 1.81822 20.6566 1.81822 19.5437C1.81516 18.4691 2.02528 17.4045 2.43643 16.4117C2.84758 15.4188 3.45158 14.5173 4.21348 13.7595C4.29965 13.6755 4.36829 13.5752 4.4154 13.4644C4.46251 13.3537 4.48716 13.2347 4.48792 13.1143C4.48869 12.994 4.46554 12.8747 4.41984 12.7633C4.37414 12.652 4.30678 12.5508 4.22168 12.4657C4.13657 12.3806 4.03542 12.3133 3.92408 12.2676C3.81275 12.2219 3.69344 12.1987 3.57309 12.1995C3.45274 12.2002 3.33374 12.2249 3.223 12.272C3.11225 12.3191 3.01196 12.3878 2.92794 12.4739C1.99651 13.4005 1.25813 14.5026 0.755552 15.7164C0.252973 16.9303 -0.00381896 18.2318 4.29195e-05 19.5455C4.29195e-05 22.4979 5.15184 24.091 10 24.091C14.8482 24.091 20 22.4979 20 19.5455C20.004 18.2229 19.7437 16.9128 19.2343 15.6922C18.725 14.4716 17.9769 13.365 17.0339 12.4376Z" fill="#798291"/>
<path d="M9.9999 13.1817C11.2585 13.1817 12.4888 12.8085 13.5353 12.1093C14.5818 11.41 15.3975 10.4162 15.8791 9.25339C16.3608 8.09059 16.4868 6.81108 16.2412 5.57666C15.9957 4.34224 15.3896 3.20836 14.4996 2.31839C13.6097 1.42842 12.4758 0.822348 11.2414 0.576807C10.007 0.331265 8.72745 0.457286 7.56465 0.938933C6.40185 1.42058 5.40799 2.23622 4.70875 3.28271C4.00951 4.3292 3.63629 5.55954 3.63629 6.81814C3.63824 8.50528 4.30932 10.1228 5.5023 11.3157C6.69529 12.5087 8.31276 13.1798 9.9999 13.1817ZM9.9999 2.27271C10.8989 2.27271 11.7777 2.53929 12.5252 3.03875C13.2727 3.53821 13.8553 4.24811 14.1993 5.07868C14.5434 5.90925 14.6334 6.82318 14.458 7.70491C14.2826 8.58664 13.8497 9.39656 13.214 10.0322C12.5783 10.6679 11.7684 11.1008 10.8867 11.2762C10.0049 11.4516 9.09101 11.3616 8.26044 11.0176C7.42987 10.6735 6.71997 10.0909 6.22051 9.34345C5.72105 8.59596 5.45447 7.71714 5.45447 6.81814C5.45588 5.61305 5.93523 4.45773 6.78736 3.6056C7.63949 2.75347 8.79481 2.27413 9.9999 2.27271V2.27271Z" fill="#798291"/>
</svg>
