<svg width="13" height="16" viewBox="0 0 13 16" fill="none" xmlns="http://www.w3.org/2000/svg">
<path d="M2.1416 6.29346C2.1416 8.87818 4.24439 10.981 6.8291 10.981C9.41382 10.981 11.5166 8.87818 11.5166 6.29346C11.5166 3.70874 9.41382 1.60596 6.8291 1.60596C4.24439 1.60596 2.1416 3.70874 2.1416 6.29346ZM6.8291 2.23096C9.06922 2.23096 10.8916 4.05335 10.8916 6.29346C10.8916 8.53357 9.06922 10.356 6.8291 10.356C4.58899 10.356 2.7666 8.53357 2.7666 6.29346C2.7666 4.05335 4.58899 2.23096 6.8291 2.23096Z" fill="white"/>
<path d="M3.93505 5.73634L5.14636 6.92983L4.86767 8.60721C4.84826 8.72403 4.89648 8.8417 4.99231 8.91129C5.08801 8.98087 5.21484 8.99027 5.31995 8.93582L6.82911 8.15213L8.33815 8.93582C8.44239 8.9899 8.56923 8.98148 8.66578 8.91129C8.76161 8.8417 8.80983 8.72403 8.79042 8.60721L8.51173 6.92983L9.72304 5.73634C9.80739 5.65333 9.83754 5.5298 9.80092 5.41713C9.7643 5.30458 9.66725 5.22242 9.55019 5.20472L7.86915 4.95167L7.10853 3.43054C7.05567 3.32471 6.94739 3.25781 6.82911 3.25781C6.7107 3.25781 6.60254 3.32471 6.54956 3.43054L5.78894 4.95167L4.1079 5.20472C3.99084 5.2223 3.89379 5.30458 3.85717 5.41713C3.82055 5.5298 3.85082 5.65333 3.93505 5.73634V5.73634ZM6.04248 5.54554C6.14307 5.53041 6.22998 5.4673 6.27552 5.37635L6.82911 4.26905L7.3827 5.37635C7.42823 5.4673 7.51514 5.53041 7.61573 5.54554L8.83925 5.72975L7.95753 6.59828C7.88514 6.6697 7.85194 6.77187 7.86854 6.87221L8.07142 8.09304L6.97303 7.52273C6.92798 7.49929 6.87854 7.48757 6.82911 7.48757C6.77967 7.48757 6.73023 7.49929 6.68506 7.52273L5.58667 8.09304L5.78955 6.87221C5.80628 6.77187 5.77307 6.6697 5.70056 6.59828L4.81897 5.72975L6.04248 5.54554Z" fill="#0CD0CD"/>
<path d="M7.14159 0.668458C7.14159 0.841066 7.0017 0.980958 6.82909 0.980958C6.65649 0.980958 6.5166 0.841066 6.5166 0.668458C6.5166 0.49585 6.65649 0.355957 6.82909 0.355957C7.0017 0.355957 7.14159 0.49585 7.14159 0.668458Z" fill="#0CD0CD"/>
<path d="M5.35633 0.540165C2.72754 1.21119 0.891602 3.57704 0.891602 6.29347C0.891602 7.98061 1.60095 9.57033 2.84619 10.6962L0.963501 14.0142C0.902954 14.121 0.910522 14.2533 0.982788 14.3524C1.05505 14.4517 1.17859 14.4994 1.29883 14.4744L3.43689 14.0304L4.18836 16.148C4.22913 16.2632 4.3335 16.3439 4.45533 16.3548C4.57715 16.3656 4.69397 16.3042 4.7544 16.1979L6.82911 12.5504L8.90369 16.1979C8.9596 16.2962 9.06361 16.3559 9.17518 16.3559C9.18433 16.3559 9.19361 16.3555 9.20277 16.3548C9.32459 16.3439 9.42896 16.2631 9.46986 16.148L10.2212 14.0304L12.3593 14.4744C12.4794 14.4993 12.603 14.4516 12.6753 14.3524C12.7477 14.2533 12.7551 14.121 12.6946 14.0142L10.8119 10.6962C12.0571 9.57033 12.7665 7.98061 12.7665 6.29347C12.7665 3.57704 10.9306 1.21119 8.30189 0.540165C8.13453 0.49744 7.96448 0.598392 7.92176 0.765629C7.87903 0.932866 7.97999 1.10303 8.14722 1.14576C10.499 1.7461 12.1416 3.86292 12.1416 6.29347C12.1416 9.25161 9.73914 11.606 6.82911 11.606C3.91699 11.606 1.5166 9.24965 1.5166 6.29347C1.5166 3.86292 3.15906 1.7461 5.51087 1.14576C5.6781 1.10303 5.77906 0.932866 5.73645 0.765629C5.69373 0.598392 5.52369 0.49744 5.35633 0.540165V0.540165ZM4.54895 15.2952L3.93482 13.5646C3.88257 13.4174 3.72974 13.3313 3.57678 13.3631L1.8479 13.7221L3.33789 11.0961C4.20667 11.7277 5.23536 12.1125 6.30506 12.2077L4.54895 15.2952ZM10.0813 13.3631C9.92847 13.3313 9.77552 13.4174 9.72327 13.5646L9.10926 15.2952L7.35303 12.2077C8.42286 12.1125 9.45142 11.7277 10.3203 11.0961L11.8103 13.7221L10.0813 13.3631Z" fill="white"/>
</svg>
