<svg width="24" height="24" viewBox="0 0 24 24" fill="none" xmlns="http://www.w3.org/2000/svg">
<path d="M9.93752 8.57811C10.4553 8.57811 10.875 8.99783 10.875 9.51561C10.875 10.0334 10.4553 10.4531 9.93752 10.4531C9.41973 10.4531 9.00002 10.0334 9.00002 9.51561C9.00002 8.99783 9.41978 8.57811 9.93752 8.57811ZM12.75 9.51561C12.75 10.0334 13.1697 10.4531 13.6875 10.4531C14.2053 10.4531 14.625 10.0334 14.625 9.51561C14.625 8.99783 14.2053 8.57811 13.6875 8.57811C13.1697 8.57811 12.75 8.99783 12.75 9.51561ZM16.5 9.51561C16.5 10.0334 16.9197 10.4531 17.4375 10.4531C17.9553 10.4531 18.375 10.0334 18.375 9.51561C18.375 8.99783 17.9553 8.57811 17.4375 8.57811C16.9197 8.57811 16.5 8.99783 16.5 9.51561ZM23.9317 19.2423C24.0747 19.5961 23.989 20.0012 23.715 20.2668C23.5365 20.4399 23.3012 20.5312 23.0623 20.5313C22.9346 20.5313 22.8059 20.5051 22.6843 20.4516L17.6546 18.2344C17.0232 18.4757 16.3726 18.6563 15.7071 18.7758C15.0254 19.897 14.053 20.8464 12.8709 21.5376C11.5512 22.3091 10.0274 22.7213 8.46006 22.7332C8.43705 22.7349 8.41403 22.7367 8.3906 22.7367C7.30694 22.7367 6.25708 22.5496 5.2639 22.1798L1.31567 23.9203C1.19408 23.9739 1.06536 24 0.937717 24C0.698796 24 0.463531 23.9087 0.284984 23.7355C0.011 23.4699 -0.0746405 23.0648 0.0683749 22.7111L1.43769 19.3238C0.495171 18.0405 3.12567e-05 16.5493 3.12567e-05 14.9777C3.12567e-05 12.4618 1.30479 10.1261 3.5059 8.66844C3.70892 6.42693 4.75554 4.34812 6.50547 2.74649C8.44061 0.97542 11.0079 0 13.7344 0C16.4609 0 19.0282 0.97542 20.9633 2.74654C22.9216 4.5388 24 6.92839 24 9.47511C24 9.89656 23.9631 10.3763 23.896 10.8258C23.8196 11.3379 23.3426 11.6913 22.8304 11.6147C22.3183 11.5383 21.9651 11.0613 22.0415 10.5492C22.0945 10.1936 22.125 9.80206 22.125 9.47511C22.125 5.2844 18.361 1.875 13.7344 1.875C9.10778 1.875 5.34377 5.2844 5.34377 9.47511C5.34377 13.1455 8.71535 17.0752 13.7344 17.0752C14.9814 17.0752 16.182 16.8328 17.3027 16.3546C17.5413 16.2528 17.8114 16.2544 18.0488 16.3591L21.3281 17.8046L20.2239 15.0734C20.0299 14.5934 20.2617 14.047 20.7418 13.8529C21.2218 13.6587 21.7682 13.8907 21.9623 14.3707L23.9317 19.2423ZM13.2017 18.9376C10.6046 18.8155 8.19949 17.8017 6.38116 16.0518C4.91993 14.6454 3.95126 12.8552 3.60795 10.9837C2.50526 12.06 1.87503 13.4795 1.87503 14.9777C1.87503 16.2867 2.34167 17.5261 3.22456 18.5619C3.45115 18.8277 3.5112 19.1975 3.38028 19.5214L2.67204 21.2733L4.86752 20.3056C5.1049 20.2009 5.37504 20.1992 5.61358 20.3011C6.47407 20.6682 7.39544 20.8564 8.35272 20.8613C8.36542 20.8607 8.37789 20.8593 8.39069 20.8593C10.2376 20.8593 11.9824 20.1378 13.2017 18.9376Z" fill="white"/>
</svg>
