<svg width="16" height="15" viewBox="0 0 16 15" fill="none" xmlns="http://www.w3.org/2000/svg">
<path d="M7.62548 2.07906L7.99999 2.50247L8.37451 2.07907C8.94269 1.43673 10.0585 0.5 11.7333 0.5C13.9112 0.5 15.5 2.59969 15.5 5.18246C15.5 7.02389 14.6159 10.8598 8.01097 14.497L8.01094 14.497C8.0068 14.4993 8.00317 14.5 7.99999 14.5C7.99682 14.5 7.99321 14.4993 7.98909 14.497L7.98903 14.497C1.38411 10.8598 0.5 7.02386 0.5 5.18246C0.5 2.5447 2.13251 0.5 4.26666 0.5C5.94155 0.5 7.05734 1.43674 7.62548 2.07906Z" stroke="white"/>
</svg>
