<svg width="21" height="20" viewBox="0 0 21 20" fill="none" xmlns="http://www.w3.org/2000/svg">
<path d="M4.45868 15.9347C5.23063 16.4911 6.57484 16.8441 8.05628 16.9805C9.54078 17.1172 11.1773 17.0377 12.5431 16.7178L12.6538 16.6919L12.5865 16.6003C12.2964 16.2061 12.0999 15.7511 12.0118 15.2696C11.9237 14.7882 11.9464 14.293 12.0781 13.8217C12.2098 13.3503 12.4471 12.9151 12.7719 12.549C13.0968 12.183 13.5007 11.8957 13.9531 11.7089L14.0424 11.672L13.9845 11.5947C13.2763 10.6476 12.288 9.9475 11.1596 9.59357C10.0313 9.23964 8.82011 9.24986 7.69788 9.62277C6.57564 9.99568 5.59925 10.7124 4.90712 11.6712C4.21499 12.6301 3.84222 13.7825 3.84167 14.9651L4.45868 15.9347ZM4.45868 15.9347C4.05595 15.644 3.84168 15.3275 3.84167 14.9651L4.45868 15.9347ZM2.95 14.9651L2.95 14.9652C2.95003 15.4092 3.11707 16.0704 3.94193 16.6592C4.54238 17.0897 5.38251 17.4079 6.3451 17.6181C7.30672 17.828 8.38589 17.9292 9.46094 17.9292H9.46199C10.7905 17.9428 12.1143 17.7684 13.3939 17.4111L13.4262 17.4021L13.4545 17.4201C13.8775 17.6906 14.3577 17.8588 14.857 17.9114C15.3563 17.964 15.8611 17.8995 16.3311 17.7231C16.8012 17.5467 17.2238 17.2633 17.5652 16.8952C17.9067 16.5271 18.1577 16.0845 18.2984 15.6025C18.4391 15.1205 18.4656 14.6124 18.3757 14.1184C18.2858 13.6245 18.0822 13.1582 17.7808 12.7566C17.4794 12.3551 17.0886 12.0292 16.6394 11.805C16.1901 11.5807 15.6949 11.4641 15.1928 11.4646L15.1617 11.4646L15.159 11.462H15.1383H14.9801L14.9579 11.4278C14.1524 10.1844 12.9487 9.25127 11.5439 8.78102L11.4075 8.73535L11.523 8.64965C12.1039 8.2189 12.5342 7.61595 12.7527 6.92655C12.9711 6.23715 12.9666 5.49642 12.7398 4.80972C12.513 4.12303 12.0754 3.52535 11.4893 3.1017C10.9032 2.67805 10.1984 2.45 9.47526 2.45C8.75208 2.45 8.04731 2.67805 7.46121 3.1017C6.87511 3.52535 6.43753 4.12303 6.21071 4.80972C5.9839 5.49642 5.97939 6.23715 6.19785 6.92655C6.4163 7.61595 6.84658 8.2189 7.42748 8.64965L7.54297 8.73529L7.40666 8.781C6.11011 9.21583 4.98265 10.0465 4.18313 11.1559C3.38362 12.2653 2.95233 13.5976 2.95 14.9651ZM7.67417 4.0924C8.15153 3.61505 8.79888 3.34656 9.47396 3.34583C9.97758 3.34583 10.4699 3.49517 10.8886 3.77497C11.3074 4.05477 11.6338 4.45245 11.8265 4.91774C12.0192 5.38302 12.0696 5.89501 11.9714 6.38896C11.8731 6.8829 11.6306 7.33662 11.2745 7.69273C10.9184 8.04884 10.4647 8.29136 9.97073 8.38961C9.47678 8.48786 8.9648 8.43744 8.49951 8.24471C8.03423 8.05198 7.63654 7.72561 7.35674 7.30686C7.07696 6.88813 6.92761 6.39584 6.9276 5.89224C6.92831 5.21714 7.19681 4.56977 7.67417 4.0924ZM15.1791 17.0375C14.7162 17.0353 14.2643 16.8961 13.8805 16.6374C13.4965 16.3786 13.1979 16.0119 13.0222 15.5836C12.8465 15.1552 12.8016 14.6844 12.8932 14.2306C12.9848 13.7767 13.2089 13.3602 13.537 13.0336C13.8651 12.707 14.2827 12.4849 14.7369 12.3953C15.1912 12.3058 15.6617 12.3528 16.0893 12.5305C16.5168 12.7081 16.8822 13.0085 17.1392 13.3936C17.3962 13.7787 17.5333 14.2312 17.5333 14.6942C17.5326 15.3154 17.2855 15.9112 16.8463 16.3504C16.407 16.7897 15.8114 17.0368 15.1902 17.0375L15.1793 17.0375C15.1793 17.0375 15.1792 17.0375 15.1791 17.0375ZM14.7444 14.2485H13.8882C13.7699 14.2485 13.6565 14.2955 13.5729 14.3791C13.4893 14.4627 13.4424 14.5761 13.4424 14.6943C13.4424 14.8126 13.4893 14.926 13.5729 15.0096C13.6565 15.0932 13.7699 15.1402 13.8882 15.1402H14.7444V15.9964C14.7444 16.1147 14.7914 16.2281 14.875 16.3117C14.9586 16.3953 15.072 16.4423 15.1903 16.4423C15.3085 16.4423 15.4219 16.3953 15.5055 16.3117C15.5891 16.2281 15.6361 16.1147 15.6361 15.9964V15.1402H16.4924C16.6106 15.1402 16.724 15.0932 16.8076 15.0096C16.8912 14.926 16.9382 14.8126 16.9382 14.6943C16.9382 14.5761 16.8912 14.4627 16.8076 14.3791C16.724 14.2955 16.6106 14.2485 16.4924 14.2485H15.6361V13.3923C15.6361 13.274 15.5891 13.1606 15.5055 13.077C15.4219 12.9934 15.3085 12.9464 15.1903 12.9464C15.072 12.9464 14.9586 12.9934 14.875 13.077C14.7914 13.1606 14.7444 13.274 14.7444 13.3923V14.2485Z" fill="white" stroke="white" stroke-width="0.1"/>
</svg>
