<svg width="20" height="20" viewBox="0 0 20 20" fill="none" xmlns="http://www.w3.org/2000/svg">
<path fill-rule="evenodd" clip-rule="evenodd" d="M8.85417 15.0521V16.0417H16.0417V3.64583H8.85417V4.63542C8.85417 4.78736 8.79381 4.93309 8.68636 5.04053C8.57892 5.14797 8.4332 5.20833 8.28125 5.20833C8.1293 5.20833 7.98358 5.14797 7.87614 5.04053C7.76869 4.93309 7.70833 4.78736 7.70833 4.63542V3.59375C7.70833 3.30367 7.82357 3.02547 8.02869 2.82035C8.2338 2.61523 8.512 2.5 8.80208 2.5H16.0938C16.3838 2.5 16.662 2.61523 16.8671 2.82035C17.0723 3.02547 17.1875 3.30367 17.1875 3.59375V16.0938C17.1875 16.3838 17.0723 16.662 16.8671 16.8671C16.662 17.0723 16.3838 17.1875 16.0938 17.1875H8.80208C8.512 17.1875 8.2338 17.0723 8.02869 16.8671C7.82357 16.662 7.70833 16.3838 7.70833 16.0938V15.0521C7.70833 14.9001 7.76869 14.7544 7.87614 14.647C7.98358 14.5395 8.1293 14.4792 8.28125 14.4792C8.4332 14.4792 8.57892 14.5395 8.68636 14.647C8.79381 14.7544 8.85417 14.9001 8.85417 15.0521ZM13.8947 10.2488L10.9488 13.1946C10.8413 13.3014 10.6956 13.3616 10.544 13.3613C10.3924 13.3611 10.247 13.3008 10.1397 13.1935C10.0324 13.0863 9.9721 12.9409 9.9719 12.7892C9.97169 12.6377 10.0318 12.4919 10.1386 12.3844L12.1064 10.4166H3.07292C2.92097 10.4166 2.77525 10.3562 2.6678 10.2488C2.56036 10.1413 2.5 9.9956 2.5 9.84366C2.5 9.69171 2.56036 9.54598 2.6678 9.43854C2.77525 9.3311 2.92097 9.27074 3.07292 9.27074H12.1064L10.1382 7.30249C10.0308 7.19505 9.9704 7.04932 9.9704 6.89738C9.9704 6.74543 10.0308 6.59971 10.1382 6.49226C10.2456 6.38482 10.3914 6.32446 10.5433 6.32446C10.6953 6.32446 10.841 6.38482 10.9484 6.49226L13.8947 9.43853C14.0022 9.54597 14.0625 9.69169 14.0625 9.84364C14.0625 9.99559 14.0022 10.1413 13.8947 10.2488Z" fill="white"/>
</svg>
